<svg version="1.1" id="Layer_1" xmlns="http://www.w3.org/2000/svg" xmlns:xlink="http://www.w3.org/1999/xlink" x="0px" y="0px"
	 width="100%" viewBox="0 0 1024 1024" enable-background="new 0 0 1024 1024" xml:space="preserve">
<path fill="#1DAE88" opacity="1.000000" stroke="none" 
	d="
M1.000000,882.000000 
	C1.000000,636.305298 1.000000,390.610596 1.403034,144.615112 
	C2.179169,143.807053 2.830441,143.327927 2.884979,142.788452 
	C4.552382,126.295090 8.237097,110.266731 14.113310,94.773277 
	C21.091978,76.373047 31.079266,59.696716 44.951321,45.750629 
	C56.772221,33.866646 70.686203,24.800732 86.094994,17.858412 
	C103.715088,9.919808 122.145622,5.504325 141.155792,2.930057 
	C142.172333,2.792401 143.055008,1.666083 144.000000,1.000002 
	C389.694702,1.000000 635.389404,1.000000 881.384888,1.403057 
	C882.192993,2.179205 882.672119,2.830449 883.211609,2.884983 
	C899.705017,4.552374 915.733398,8.237112 931.226807,14.113323 
	C949.627014,21.091972 966.303345,31.079294 980.249451,44.951347 
	C992.133423,56.772247 1001.199402,70.686218 1008.141663,86.095039 
	C1016.080200,103.715111 1020.495667,122.145622 1023.069885,141.155746 
	C1023.207581,142.172318 1024.333984,143.054977 1025.000000,144.000000 
	C1025.000000,389.694702 1025.000000,635.389404 1024.596924,881.384888 
	C1023.820862,882.192993 1023.169617,882.672058 1023.115112,883.211548 
	C1021.447693,899.704895 1017.762939,915.733276 1011.886780,931.226746 
	C1004.908081,949.627014 994.920776,966.303284 981.048706,980.249329 
	C969.227722,992.133240 955.313904,1001.199463 939.905090,1008.141663 
	C922.284973,1016.080200 903.854431,1020.495667 884.844299,1023.069946 
	C883.827759,1023.207642 882.945068,1024.333984 882.000000,1025.000000 
	C636.305298,1025.000000 390.610596,1025.000000 144.615112,1024.596924 
	C143.807114,1023.820801 143.328033,1023.169556 142.788589,1023.115051 
	C126.295219,1021.447693 110.266861,1017.763000 94.773415,1011.886780 
	C76.373215,1004.908020 59.696781,994.920898 45.750717,981.048828 
	C33.866688,969.227905 24.800753,955.313904 17.858419,939.905090 
	C9.919828,922.284973 5.504358,903.854370 2.930058,884.844238 
	C2.792397,883.827698 1.666079,882.945007 1.000000,882.000000 
M972.597229,735.500305 
	C972.515869,708.503418 972.375977,681.506592 972.363892,654.509705 
	C972.323425,563.850647 972.352417,473.191589 972.306152,382.532532 
	C972.283142,337.537781 973.472046,292.492767 971.757874,247.560349 
	C969.311218,183.427490 938.727295,135.064102 883.122009,103.341034 
	C852.305115,85.759834 818.088135,81.548836 783.071167,82.646439 
	C779.782593,82.749512 778.809753,84.305183 778.858459,87.369797 
	C778.988037,95.533195 779.162292,103.708649 778.851685,111.861519 
	C778.665039,116.759827 780.531250,118.095177 785.229248,118.097244 
	C796.708923,118.102287 808.281067,117.822937 819.651367,119.110970 
	C863.098267,124.032639 895.053040,147.156647 918.208496,183.319244 
	C933.062744,206.517563 938.137268,232.363800 938.120178,259.593536 
	C938.028748,405.250854 938.079773,550.908264 938.055908,696.565674 
	C938.048889,739.395081 938.137390,782.225708 937.837646,825.053345 
	C937.663025,850.002441 931.670105,873.461792 918.502869,894.968140 
	C900.930237,923.669861 876.413208,943.519226 844.555298,954.387573 
	C829.115479,959.654907 813.032532,959.627869 797.113403,959.770508 
	C742.314392,960.261597 687.510132,960.410034 632.708557,960.314575 
	C561.908508,960.191284 491.109283,959.590454 420.309113,959.413635 
	C354.843658,959.250122 289.377350,959.452942 223.911743,959.321228 
	C205.932312,959.285034 188.178207,956.924316 172.071091,948.396790 
	C122.079742,921.930115 94.742302,880.991821 93.978355,823.669983 
	C93.696350,802.509766 94.056671,781.341553 94.054527,760.176941 
	C94.037453,591.856445 94.019234,423.535919 93.961433,255.215408 
	C93.950333,222.893234 103.399872,193.826477 123.884796,168.699814 
	C145.548691,142.127045 173.007996,124.295235 207.204773,119.909210 
	C228.243744,117.210800 249.758392,118.233101 271.058228,117.546188 
	C274.900513,117.422272 275.279358,119.846481 275.261932,122.775101 
	C275.213409,130.939270 275.199646,139.103745 275.201660,147.268097 
	C275.202820,151.933273 274.995514,156.618561 275.346100,161.259720 
	C276.251251,173.241272 284.674805,180.938934 297.239014,181.586212 
	C308.891479,182.186523 317.045532,175.557846 319.240112,163.580200 
	C319.657776,161.300720 319.867035,158.951477 319.874817,156.633423 
	C319.945282,135.635208 320.050690,114.636230 319.937744,93.638596 
	C319.862518,79.648933 320.204346,65.594917 318.987152,51.689831 
	C317.585144,35.673824 301.766113,27.956335 287.389832,35.196426 
	C278.713470,39.565964 275.610352,47.062157 275.262207,56.045593 
	C274.984985,63.198399 275.051086,70.379120 275.329956,77.533211 
	C275.488617,81.603889 274.212494,83.073792 269.998413,82.995674 
	C258.339813,82.779579 246.653534,82.549454 235.015900,83.109085 
	C221.732880,83.747849 208.092010,83.566269 195.296616,86.626259 
	C123.778534,103.729591 79.777367,148.824631 62.937664,220.250122 
	C58.314011,239.861313 59.530121,260.000153 59.579193,279.990234 
	C59.717064,336.151703 59.828468,392.313416 59.807674,448.475006 
	C59.761894,572.130249 59.613117,695.785461 59.547600,819.440674 
	C59.538036,837.488464 60.959164,855.340576 66.250687,872.782532 
	C79.192696,915.441772 104.629227,948.398926 142.674133,971.486755 
	C171.055298,988.710083 202.155762,995.316406 235.192764,995.296448 
	C421.153595,995.184082 607.114746,995.457153 793.075378,995.254395 
	C808.453796,995.237671 824.125916,994.094666 839.148132,990.990417 
	C876.730286,983.224304 908.042358,964.141296 932.624390,934.484680 
	C957.139343,904.908875 970.987000,870.985840 971.966614,832.472717 
	C972.780029,800.497253 972.431152,768.492188 972.597229,735.500305 
M725.037598,448.536163 
	C716.475525,458.088287 707.837341,467.573883 699.393311,477.229218 
	C696.502930,480.534210 693.158813,481.680481 688.867249,481.646027 
	C660.881104,481.421082 632.893677,481.368805 604.906799,481.226837 
	C595.632996,481.179779 589.107300,484.739441 585.620300,493.917664 
	C575.920837,519.447998 565.885925,544.851135 555.927795,570.282776 
	C553.182861,577.293152 550.243042,584.227356 547.392578,591.196533 
	C545.151855,587.810364 543.967896,584.572021 543.159119,581.242554 
	C529.834656,526.392578 516.572510,471.527496 503.247070,416.677795 
	C501.874390,411.027588 500.781403,405.199432 498.513092,399.901520 
	C494.714172,391.028687 483.145264,389.065918 476.559021,396.165619 
	C473.982727,398.942780 472.263275,402.900543 471.191772,406.619720 
	C466.997467,421.177673 463.231659,435.858826 459.281616,450.487457 
	C445.781342,500.484344 432.286804,550.482849 418.709229,600.458740 
	C418.116425,602.640625 416.725677,604.605591 415.222870,607.652405 
	C408.983276,592.930176 403.356842,579.629089 397.709137,566.336975 
	C393.086334,555.457031 388.750641,544.440491 383.712860,533.755554 
	C378.729889,523.186768 367.199341,522.110901 359.767212,531.112000 
	C358.815948,532.264099 357.992493,533.527222 357.166718,534.776611 
	C348.072449,548.536194 338.813171,562.191956 330.007660,576.134155 
	C327.261108,580.482971 324.136963,582.092957 319.079651,582.079834 
	C278.585815,581.974854 238.091339,582.094604 197.597122,582.171936 
	C194.267578,582.178345 190.922501,582.212219 187.612640,582.527466 
	C182.032684,583.058899 177.465775,586.881592 176.153610,592.205261 
	C174.772202,597.809875 175.722275,603.221008 180.613525,606.528259 
	C183.599731,608.547363 187.683411,609.884277 191.285370,609.909302 
	C237.608597,610.230835 283.934113,610.207642 330.258392,610.412354 
	C338.616913,610.449219 344.372711,606.952271 348.654968,599.840454 
	C354.301147,590.463379 360.478577,581.406250 367.070007,571.218811 
	C368.817383,573.920898 370.439270,575.765442 371.332642,577.913086 
	C380.285095,599.434753 389.091156,621.017334 398.001404,642.556702 
	C400.482819,648.555176 402.891449,654.611450 405.843658,660.380066 
	C408.974243,666.497131 414.402100,668.861938 421.246216,668.293030 
	C427.582794,667.766357 431.078033,663.961548 433.166687,658.432129 
	C433.870697,656.568481 434.416931,654.637085 434.918152,652.706299 
	C438.599579,638.524414 442.139740,624.304810 445.933044,610.153076 
	C457.915222,565.451294 469.965210,520.767517 482.114960,476.111084 
	C482.589264,474.367737 484.357788,472.976532 486.017700,470.761444 
	C487.451202,475.363373 488.600800,478.449860 489.373901,481.627930 
	C498.268158,518.191528 507.084747,554.774048 515.966248,591.340698 
	C520.444702,609.779236 524.934998,628.215759 529.582520,646.612061 
	C531.286926,653.358643 536.490540,656.331787 542.930359,656.749512 
	C548.887024,657.135925 553.591125,654.435913 556.326843,648.913452 
	C557.655701,646.231018 558.969482,643.525330 560.044800,640.735535 
	C576.093506,599.097412 592.151611,557.462646 608.041199,515.763733 
	C609.632385,511.588165 611.679565,509.854858 616.354858,509.911835 
	C639.681091,510.196075 663.012085,510.201080 686.340881,510.128784 
	C710.529907,510.053802 705.643188,512.407043 722.944275,493.695435 
	C751.900879,462.378143 780.723389,430.936737 809.561829,399.510437 
	C823.415955,384.413116 837.255615,369.300659 850.902710,354.017303 
	C853.132629,351.520081 855.146423,348.273926 855.829407,345.069061 
	C857.173645,338.760376 853.308716,331.933441 847.851990,329.184235 
	C842.570679,326.523407 836.363831,327.851532 831.135498,333.311096 
	C823.531982,341.250885 816.165771,349.418488 808.723633,357.512146 
	C780.986084,387.678162 753.258789,417.853546 725.037598,448.536163 
M747.796692,778.499878 
	C747.731201,804.653870 747.625916,830.807800 747.617004,856.961792 
	C747.612549,870.133423 753.154541,875.608459 766.486328,875.746155 
	C773.312622,875.816650 780.140625,875.713928 786.967834,875.714478 
	C801.944641,875.715698 816.922119,875.820801 831.898071,875.712341 
	C841.784912,875.640747 847.397339,870.480896 848.513611,860.752869 
	C848.759644,858.608337 848.789612,856.430481 848.792114,854.267883 
	C848.836365,816.285034 848.922852,778.302185 848.876404,740.319397 
	C848.785645,666.022278 848.625610,591.725220 848.468140,517.428162 
	C848.455811,511.607574 848.650696,505.742645 848.022949,499.977386 
	C847.050232,491.042938 841.679810,486.334167 832.738770,485.867096 
	C829.416321,485.693542 826.079468,485.768829 822.749268,485.774567 
	C803.260986,485.808197 783.772339,485.789551 764.284668,485.922607 
	C753.302795,485.997589 748.090393,491.213318 747.707458,502.126129 
	C747.654968,503.624207 747.621765,505.123932 747.622681,506.622833 
	C747.677734,596.915161 747.737366,687.207520 747.796692,778.499878 
M239.136108,328.742401 
	C226.476379,328.808563 213.807892,328.603638 201.159195,329.011688 
	C186.393875,329.488037 176.311890,339.306580 175.821045,353.967407 
	C175.325211,368.777802 175.192764,383.625183 175.625824,398.435181 
	C176.100952,414.684265 185.347855,423.735260 201.357788,424.206696 
	C214.005234,424.579132 226.667648,424.426422 239.322830,424.561035 
	C245.466888,424.626373 245.834412,425.088257 245.837326,431.076874 
	C245.843643,444.071320 245.748016,457.068237 245.971176,470.059387 
	C246.123474,478.926575 249.394669,486.867798 257.439697,490.917603 
	C263.030701,493.732086 269.708893,495.264832 276.001068,495.624207 
	C288.790863,496.354645 301.650452,496.069275 314.477112,495.896362 
	C330.671783,495.678040 341.233185,485.752747 341.939514,469.629456 
	C342.485748,457.161163 342.265289,444.655548 342.233826,432.166931 
	C342.214813,424.621216 342.084595,424.642883 349.929932,424.604095 
	C362.584747,424.541534 375.274536,425.010651 387.885284,424.224518 
	C403.646088,423.241974 411.999359,414.805267 412.624908,399.016022 
	C413.211090,384.221252 413.127655,369.341644 412.258270,354.562897 
	C411.249725,337.417725 401.319946,328.766296 384.227264,328.731750 
	C372.398102,328.707855 360.568665,328.845062 348.739288,328.895630 
	C342.610565,328.921814 342.176361,328.434753 342.167511,322.592224 
	C342.149109,310.430756 342.250458,298.264954 341.961029,286.109070 
	C341.547668,268.749237 330.903290,258.045288 313.654541,257.797852 
	C300.330078,257.606689 286.991028,257.718536 273.670898,258.114807 
	C256.427917,258.627747 246.244125,268.982513 245.866104,286.284912 
	C245.600525,298.440796 245.718521,310.607574 245.834457,322.767883 
	C245.873932,326.909424 244.451691,329.161041 239.136108,328.742401 
M494.500031,83.163109 
	C457.016052,83.134201 419.532043,83.109230 382.048065,83.074043 
	C370.388458,83.063103 358.728485,83.071831 347.069489,82.972763 
	C343.019775,82.938347 341.584930,84.625671 341.759705,88.727295 
	C342.014526,94.708298 341.698914,100.716217 341.555847,106.710983 
	C341.291992,117.769051 341.270599,117.779564 352.203247,117.775452 
	C470.166290,117.731117 588.129333,117.693779 706.092285,117.592003 
	C710.287109,117.588379 712.013000,118.970863 711.929626,123.403877 
	C711.707397,135.229187 711.670532,147.067047 711.952698,158.890564 
	C712.349304,175.513550 727.433838,185.670761 743.106262,180.124481 
	C751.686890,177.087921 756.548279,169.236938 756.779480,157.304535 
	C756.982788,146.811249 756.878723,136.310577 756.813049,125.813782 
	C756.663025,101.825584 756.748352,77.830360 756.146545,53.852837 
	C755.833679,41.387672 746.438293,32.810810 734.575256,32.738995 
	C722.124268,32.663616 712.834290,41.344067 712.095520,54.117989 
	C711.730591,60.429329 711.912109,66.774498 711.914429,73.104332 
	C711.918091,82.896568 711.942993,82.926804 701.932800,82.938789 
	C633.121887,83.021210 564.310974,83.089966 494.500031,83.163109 
M617.084778,749.500000 
	C617.077515,758.665222 617.037109,767.830627 617.069336,776.995728 
	C617.161499,803.156189 617.494263,829.317993 617.311157,855.476379 
	C617.206970,870.357483 624.660156,875.716492 638.388428,875.739685 
	C644.552917,875.750061 650.717773,875.620972 656.882080,875.642273 
	C671.703796,875.693604 686.525330,875.865173 701.346863,875.856079 
	C712.955322,875.848999 718.564941,870.414551 719.087891,858.897949 
	C719.216309,856.069824 719.216125,853.234253 719.216431,850.402100 
	C719.223022,786.580322 719.223572,722.758545 719.218567,658.936768 
	C719.217957,651.442444 719.522217,643.927246 719.068848,636.459167 
	C718.517334,627.373108 713.654419,622.571899 704.583557,621.568176 
	C700.791687,621.148560 696.935547,621.196899 693.109558,621.216248 
	C673.289307,621.316467 653.463135,621.228333 633.651855,621.720825 
	C623.924744,621.962646 618.895996,627.361267 617.823120,637.042542 
	C617.640015,638.694275 617.568176,640.365723 617.560303,642.028564 
	C617.391907,677.518982 617.240051,713.009521 617.084778,749.500000 
M589.901855,776.500000 
	C589.901855,754.843689 589.965271,733.187073 589.877930,711.531128 
	C589.826172,698.695679 584.144714,692.796265 571.389160,692.697205 
	C549.740234,692.528992 528.088135,692.542786 506.439117,692.708069 
	C494.070587,692.802551 488.207764,698.389832 488.177490,710.827637 
	C488.058685,759.636536 488.130157,808.446594 488.369720,857.255066 
	C488.431641,869.872375 494.376251,875.416321 506.949951,875.531616 
	C528.432129,875.728577 549.915527,875.845642 571.398560,875.868408 
	C583.687927,875.881409 588.968811,870.755066 589.732117,858.462708 
	C589.814575,857.134094 589.803467,855.798462 589.805359,854.466125 
	C589.841064,828.810730 589.872192,803.155396 589.901855,776.500000 
M359.223816,862.809509 
	C361.788513,871.830811 367.155273,875.648254 377.966095,875.713684 
	C399.103912,875.841614 420.242798,875.904724 441.380829,875.843750 
	C454.400543,875.806213 459.384247,871.032654 460.493500,858.016968 
	C460.620667,856.525024 460.692749,855.024048 460.699036,853.526794 
	C460.763306,838.204285 460.925507,822.880859 460.817230,807.559448 
	C460.747833,797.743408 460.729095,787.888672 459.843079,778.127930 
	C459.032166,769.194885 453.382202,764.043640 445.266083,763.984497 
	C421.952148,763.814575 398.636078,763.730957 375.322205,763.861206 
	C365.093079,763.918396 359.168518,769.337402 359.070099,779.521912 
	C358.804688,806.991638 359.065399,834.466492 359.223816,862.809509 
z"/>
<path fill="#000000" opacity="1.000000" stroke="none" 
	d="
M1025.000000,143.531342 
	C1024.333984,143.054977 1023.207581,142.172318 1023.069885,141.155746 
	C1020.495667,122.145622 1016.080200,103.715111 1008.141663,86.095039 
	C1001.199402,70.686218 992.133423,56.772247 980.249451,44.951347 
	C966.303345,31.079294 949.627014,21.091972 931.226807,14.113323 
	C915.733398,8.237112 899.705017,4.552374 883.211609,2.884983 
	C882.672119,2.830449 882.192993,2.179205 881.842896,1.403057 
	C929.593689,1.000000 977.187317,1.000000 1025.000000,1.000000 
	C1025.000000,48.354004 1025.000000,95.708344 1025.000000,143.531342 
z"/>
<path fill="#000000" opacity="1.000000" stroke="none" 
	d="
M1.000000,882.468628 
	C1.666079,882.945007 2.792397,883.827698 2.930058,884.844238 
	C5.504358,903.854370 9.919828,922.284973 17.858419,939.905090 
	C24.800753,955.313904 33.866688,969.227905 45.750717,981.048828 
	C59.696781,994.920898 76.373215,1004.908020 94.773415,1011.886780 
	C110.266861,1017.763000 126.295219,1021.447693 142.788589,1023.115051 
	C143.328033,1023.169556 143.807114,1023.820801 144.157166,1024.596924 
	C96.406349,1025.000000 48.812695,1025.000000 1.000000,1025.000000 
	C1.000000,977.645996 1.000000,930.291687 1.000000,882.468628 
z"/>
<path fill="#000000" opacity="1.000000" stroke="none" 
	d="
M882.468689,1025.000000 
	C882.945068,1024.333984 883.827759,1023.207642 884.844299,1023.069946 
	C903.854431,1020.495667 922.284973,1016.080200 939.905090,1008.141663 
	C955.313904,1001.199463 969.227722,992.133240 981.048706,980.249329 
	C994.920776,966.303284 1004.908081,949.627014 1011.886780,931.226746 
	C1017.762939,915.733276 1021.447693,899.704895 1023.115112,883.211548 
	C1023.169617,882.672058 1023.820862,882.192993 1024.596924,881.842896 
	C1025.000000,929.593689 1025.000000,977.187317 1025.000000,1025.000000 
	C977.645996,1025.000000 930.291687,1025.000000 882.468689,1025.000000 
z"/>
<path fill="#000000" opacity="1.000000" stroke="none" 
	d="
M143.531342,1.000002 
	C143.055008,1.666083 142.172333,2.792401 141.155792,2.930057 
	C122.145622,5.504325 103.715088,9.919808 86.094994,17.858412 
	C70.686203,24.800732 56.772221,33.866646 44.951321,45.750629 
	C31.079266,59.696716 21.091978,76.373047 14.113310,94.773277 
	C8.237097,110.266731 4.552382,126.295090 2.884979,142.788452 
	C2.830441,143.327927 2.179169,143.807053 1.403034,144.157166 
	C1.000000,96.406349 1.000000,48.812695 1.000000,1.000000 
	C48.354004,1.000000 95.708344,1.000000 143.531342,1.000002 
z"/>
<path fill="#FBFEFE" opacity="1.000000" stroke="none" 
	d="
M972.597168,736.000244 
	C972.431152,768.492188 972.780029,800.497253 971.966614,832.472717 
	C970.987000,870.985840 957.139343,904.908875 932.624390,934.484680 
	C908.042358,964.141296 876.730286,983.224304 839.148132,990.990417 
	C824.125916,994.094666 808.453796,995.237671 793.075378,995.254395 
	C607.114746,995.457153 421.153595,995.184082 235.192764,995.296448 
	C202.155762,995.316406 171.055298,988.710083 142.674133,971.486755 
	C104.629227,948.398926 79.192696,915.441772 66.250687,872.782532 
	C60.959164,855.340576 59.538036,837.488464 59.547600,819.440674 
	C59.613117,695.785461 59.761894,572.130249 59.807674,448.475006 
	C59.828468,392.313416 59.717064,336.151703 59.579193,279.990234 
	C59.530121,260.000153 58.314011,239.861313 62.937664,220.250122 
	C79.777367,148.824631 123.778534,103.729591 195.296616,86.626259 
	C208.092010,83.566269 221.732880,83.747849 235.015900,83.109085 
	C246.653534,82.549454 258.339813,82.779579 269.998413,82.995674 
	C274.212494,83.073792 275.488617,81.603889 275.329956,77.533211 
	C275.051086,70.379120 274.984985,63.198399 275.262207,56.045593 
	C275.610352,47.062157 278.713470,39.565964 287.389832,35.196426 
	C301.766113,27.956335 317.585144,35.673824 318.987152,51.689831 
	C320.204346,65.594917 319.862518,79.648933 319.937744,93.638596 
	C320.050690,114.636230 319.945282,135.635208 319.874817,156.633423 
	C319.867035,158.951477 319.657776,161.300720 319.240112,163.580200 
	C317.045532,175.557846 308.891479,182.186523 297.239014,181.586212 
	C284.674805,180.938934 276.251251,173.241272 275.346100,161.259720 
	C274.995514,156.618561 275.202820,151.933273 275.201660,147.268097 
	C275.199646,139.103745 275.213409,130.939270 275.261932,122.775101 
	C275.279358,119.846481 274.900513,117.422272 271.058228,117.546188 
	C249.758392,118.233101 228.243744,117.210800 207.204773,119.909210 
	C173.007996,124.295235 145.548691,142.127045 123.884796,168.699814 
	C103.399872,193.826477 93.950333,222.893234 93.961433,255.215408 
	C94.019234,423.535919 94.037453,591.856445 94.054527,760.176941 
	C94.056671,781.341553 93.696350,802.509766 93.978355,823.669983 
	C94.742302,880.991821 122.079742,921.930115 172.071091,948.396790 
	C188.178207,956.924316 205.932312,959.285034 223.911743,959.321228 
	C289.377350,959.452942 354.843658,959.250122 420.309113,959.413635 
	C491.109283,959.590454 561.908508,960.191284 632.708557,960.314575 
	C687.510132,960.410034 742.314392,960.261597 797.113403,959.770508 
	C813.032532,959.627869 829.115479,959.654907 844.555298,954.387573 
	C876.413208,943.519226 900.930237,923.669861 918.502869,894.968140 
	C931.670105,873.461792 937.663025,850.002441 937.837646,825.053345 
	C938.137390,782.225708 938.048889,739.395081 938.055908,696.565674 
	C938.079773,550.908264 938.028748,405.250854 938.120178,259.593536 
	C938.137268,232.363800 933.062744,206.517563 918.208496,183.319244 
	C895.053040,147.156647 863.098267,124.032639 819.651367,119.110970 
	C808.281067,117.822937 796.708923,118.102287 785.229248,118.097244 
	C780.531250,118.095177 778.665039,116.759827 778.851685,111.861519 
	C779.162292,103.708649 778.988037,95.533195 778.858459,87.369797 
	C778.809753,84.305183 779.782593,82.749512 783.071167,82.646439 
	C818.088135,81.548836 852.305115,85.759834 883.122009,103.341034 
	C938.727295,135.064102 969.311218,183.427490 971.757874,247.560349 
	C973.472046,292.492767 972.283142,337.537781 972.306152,382.532532 
	C972.352417,473.191589 972.323425,563.850647 972.363892,654.509705 
	C972.375977,681.506592 972.515869,708.503418 972.597168,736.000244 
z"/>
<path fill="#FBFEFD" opacity="1.000000" stroke="none" 
	d="
M725.282593,448.280792 
	C753.258789,417.853546 780.986084,387.678162 808.723633,357.512146 
	C816.165771,349.418488 823.531982,341.250885 831.135498,333.311096 
	C836.363831,327.851532 842.570679,326.523407 847.851990,329.184235 
	C853.308716,331.933441 857.173645,338.760376 855.829407,345.069061 
	C855.146423,348.273926 853.132629,351.520081 850.902710,354.017303 
	C837.255615,369.300659 823.415955,384.413116 809.561829,399.510437 
	C780.723389,430.936737 751.900879,462.378143 722.944275,493.695435 
	C705.643188,512.407043 710.529907,510.053802 686.340881,510.128784 
	C663.012085,510.201080 639.681091,510.196075 616.354858,509.911835 
	C611.679565,509.854858 609.632385,511.588165 608.041199,515.763733 
	C592.151611,557.462646 576.093506,599.097412 560.044800,640.735535 
	C558.969482,643.525330 557.655701,646.231018 556.326843,648.913452 
	C553.591125,654.435913 548.887024,657.135925 542.930359,656.749512 
	C536.490540,656.331787 531.286926,653.358643 529.582520,646.612061 
	C524.934998,628.215759 520.444702,609.779236 515.966248,591.340698 
	C507.084747,554.774048 498.268158,518.191528 489.373901,481.627930 
	C488.600800,478.449860 487.451202,475.363373 486.017700,470.761444 
	C484.357788,472.976532 482.589264,474.367737 482.114960,476.111084 
	C469.965210,520.767517 457.915222,565.451294 445.933044,610.153076 
	C442.139740,624.304810 438.599579,638.524414 434.918152,652.706299 
	C434.416931,654.637085 433.870697,656.568481 433.166687,658.432129 
	C431.078033,663.961548 427.582794,667.766357 421.246216,668.293030 
	C414.402100,668.861938 408.974243,666.497131 405.843658,660.380066 
	C402.891449,654.611450 400.482819,648.555176 398.001404,642.556702 
	C389.091156,621.017334 380.285095,599.434753 371.332642,577.913086 
	C370.439270,575.765442 368.817383,573.920898 367.070007,571.218811 
	C360.478577,581.406250 354.301147,590.463379 348.654968,599.840454 
	C344.372711,606.952271 338.616913,610.449219 330.258392,610.412354 
	C283.934113,610.207642 237.608597,610.230835 191.285370,609.909302 
	C187.683411,609.884277 183.599731,608.547363 180.613525,606.528259 
	C175.722275,603.221008 174.772202,597.809875 176.153610,592.205261 
	C177.465775,586.881592 182.032684,583.058899 187.612640,582.527466 
	C190.922501,582.212219 194.267578,582.178345 197.597122,582.171936 
	C238.091339,582.094604 278.585815,581.974854 319.079651,582.079834 
	C324.136963,582.092957 327.261108,580.482971 330.007660,576.134155 
	C338.813171,562.191956 348.072449,548.536194 357.166718,534.776611 
	C357.992493,533.527222 358.815948,532.264099 359.767212,531.112000 
	C367.199341,522.110901 378.729889,523.186768 383.712860,533.755554 
	C388.750641,544.440491 393.086334,555.457031 397.709137,566.336975 
	C403.356842,579.629089 408.983276,592.930176 415.222870,607.652405 
	C416.725677,604.605591 418.116425,602.640625 418.709229,600.458740 
	C432.286804,550.482849 445.781342,500.484344 459.281616,450.487457 
	C463.231659,435.858826 466.997467,421.177673 471.191772,406.619720 
	C472.263275,402.900543 473.982727,398.942780 476.559021,396.165619 
	C483.145264,389.065918 494.714172,391.028687 498.513092,399.901520 
	C500.781403,405.199432 501.874390,411.027588 503.247070,416.677795 
	C516.572510,471.527496 529.834656,526.392578 543.159119,581.242554 
	C543.967896,584.572021 545.151855,587.810364 547.392578,591.196533 
	C550.243042,584.227356 553.182861,577.293152 555.927795,570.282776 
	C565.885925,544.851135 575.920837,519.447998 585.620300,493.917664 
	C589.107300,484.739441 595.632996,481.179779 604.906799,481.226837 
	C632.893677,481.368805 660.881104,481.421082 688.867249,481.646027 
	C693.158813,481.680481 696.502930,480.534210 699.393311,477.229218 
	C707.837341,467.573883 716.475525,458.088287 725.282593,448.280792 
z"/>
<path fill="#FBFEFD" opacity="1.000000" stroke="none" 
	d="
M747.796631,777.999878 
	C747.737366,687.207520 747.677734,596.915161 747.622681,506.622833 
	C747.621765,505.123932 747.654968,503.624207 747.707458,502.126129 
	C748.090393,491.213318 753.302795,485.997589 764.284668,485.922607 
	C783.772339,485.789551 803.260986,485.808197 822.749268,485.774567 
	C826.079468,485.768829 829.416321,485.693542 832.738770,485.867096 
	C841.679810,486.334167 847.050232,491.042938 848.022949,499.977386 
	C848.650696,505.742645 848.455811,511.607574 848.468140,517.428162 
	C848.625610,591.725220 848.785645,666.022278 848.876404,740.319397 
	C848.922852,778.302185 848.836365,816.285034 848.792114,854.267883 
	C848.789612,856.430481 848.759644,858.608337 848.513611,860.752869 
	C847.397339,870.480896 841.784912,875.640747 831.898071,875.712341 
	C816.922119,875.820801 801.944641,875.715698 786.967834,875.714478 
	C780.140625,875.713928 773.312622,875.816650 766.486328,875.746155 
	C753.154541,875.608459 747.612549,870.133423 747.617004,856.961792 
	C747.625916,830.807800 747.731201,804.653870 747.796631,777.999878 
M819.963318,777.500000 
	C819.963318,703.854736 819.965454,630.209534 819.961060,556.564270 
	C819.960388,545.067810 819.948181,533.571228 819.907227,522.074829 
	C819.883484,515.423706 819.259216,514.794861 812.881104,514.842529 
	C802.552551,514.919739 792.223572,515.125183 781.896057,515.063904 
	C778.022339,515.040955 776.458130,516.651794 776.466370,520.414368 
	C776.485474,529.075623 776.312134,537.737305 776.325073,546.398621 
	C776.396484,594.213867 776.524719,642.029114 776.586426,689.844421 
	C776.650757,739.660706 776.657593,789.476990 776.700562,839.293274 
	C776.706604,846.301514 777.229553,846.808655 784.038269,846.673767 
	C793.032288,846.495667 802.025818,846.298279 811.019592,846.110107 
	C819.591003,845.930664 819.806396,845.758728 819.838013,836.979309 
	C819.908264,817.486328 819.924866,797.993103 819.963318,777.500000 
z"/>
<path fill="#FAFEFD" opacity="1.000000" stroke="none" 
	d="
M239.590805,328.769104 
	C244.451691,329.161041 245.873932,326.909424 245.834457,322.767883 
	C245.718521,310.607574 245.600525,298.440796 245.866104,286.284912 
	C246.244125,268.982513 256.427917,258.627747 273.670898,258.114807 
	C286.991028,257.718536 300.330078,257.606689 313.654541,257.797852 
	C330.903290,258.045288 341.547668,268.749237 341.961029,286.109070 
	C342.250458,298.264954 342.149109,310.430756 342.167511,322.592224 
	C342.176361,328.434753 342.610565,328.921814 348.739288,328.895630 
	C360.568665,328.845062 372.398102,328.707855 384.227264,328.731750 
	C401.319946,328.766296 411.249725,337.417725 412.258270,354.562897 
	C413.127655,369.341644 413.211090,384.221252 412.624908,399.016022 
	C411.999359,414.805267 403.646088,423.241974 387.885284,424.224518 
	C375.274536,425.010651 362.584747,424.541534 349.929932,424.604095 
	C342.084595,424.642883 342.214813,424.621216 342.233826,432.166931 
	C342.265289,444.655548 342.485748,457.161163 341.939514,469.629456 
	C341.233185,485.752747 330.671783,495.678040 314.477112,495.896362 
	C301.650452,496.069275 288.790863,496.354645 276.001068,495.624207 
	C269.708893,495.264832 263.030701,493.732086 257.439697,490.917603 
	C249.394669,486.867798 246.123474,478.926575 245.971176,470.059387 
	C245.748016,457.068237 245.843643,444.071320 245.837326,431.076874 
	C245.834412,425.088257 245.466888,424.626373 239.322830,424.561035 
	C226.667648,424.426422 214.005234,424.579132 201.357788,424.206696 
	C185.347855,423.735260 176.100952,414.684265 175.625824,398.435181 
	C175.192764,383.625183 175.325211,368.777802 175.821045,353.967407 
	C176.311890,339.306580 186.393875,329.488037 201.159195,329.011688 
	C213.807892,328.603638 226.476379,328.808563 239.590805,328.769104 
M204.032318,372.509125 
	C204.054871,378.671021 204.379959,384.851715 203.998718,390.988525 
	C203.722534,395.434235 205.556335,396.484558 209.505188,396.346100 
	C215.826691,396.124481 222.159744,396.227631 228.487946,396.203217 
	C237.980286,396.166595 247.476807,395.947968 256.963928,396.155304 
	C268.603577,396.409668 273.563110,401.352417 274.328918,412.884613 
	C274.439148,414.544922 274.514130,416.210846 274.518402,417.874390 
	C274.555542,432.362183 274.642365,446.850433 274.552094,461.337555 
	C274.526123,465.502899 275.821716,467.284149 280.367615,467.100403 
	C288.845428,466.757721 297.349701,466.930634 305.839783,467.074951 
	C312.792664,467.193146 313.055389,467.136993 313.086182,459.985138 
	C313.145721,446.162781 313.088867,432.339996 313.102814,418.517365 
	C313.120605,400.903107 317.790070,396.204376 335.232239,396.182434 
	C349.554138,396.164429 363.876373,396.176422 378.197662,396.070526 
	C380.336273,396.054718 383.205048,396.683197 383.245667,392.957611 
	C383.361786,382.306152 383.479889,371.654572 383.649658,361.003876 
	C383.694153,358.211823 382.333374,357.120880 379.679688,357.172028 
	C375.685242,357.248993 371.689392,357.288422 367.694183,357.284668 
	C354.381714,357.272064 341.051392,357.640778 327.763214,357.058319 
	C319.171387,356.681702 314.692169,351.642761 313.525635,343.064758 
	C313.190643,340.601196 313.145111,338.084930 313.137970,335.592346 
	C313.096924,321.269135 313.030304,306.945099 313.148224,292.622803 
	C313.182617,288.446106 311.901764,286.622772 307.355835,286.795166 
	C298.541718,287.129486 289.706909,286.911316 280.880707,286.935608 
	C274.952240,286.951935 274.514221,287.685242 274.548187,293.611359 
	C274.641754,309.930573 274.669800,326.253723 274.401672,342.570007 
	C274.271851,350.470947 270.031952,355.260376 262.329224,356.883759 
	C259.263519,357.529846 256.051239,357.719879 252.906876,357.710419 
	C241.420883,357.675781 229.935394,357.471497 218.449753,357.327515 
	C203.989548,357.146210 203.989563,357.144684 204.032318,372.509125 
z"/>
<path fill="#FAFEFD" opacity="1.000000" stroke="none" 
	d="
M495.000061,83.163116 
	C564.310974,83.089966 633.121887,83.021210 701.932800,82.938789 
	C711.942993,82.926804 711.918091,82.896568 711.914429,73.104332 
	C711.912109,66.774498 711.730591,60.429329 712.095520,54.117989 
	C712.834290,41.344067 722.124268,32.663616 734.575256,32.738995 
	C746.438293,32.810810 755.833679,41.387672 756.146545,53.852837 
	C756.748352,77.830360 756.663025,101.825584 756.813049,125.813782 
	C756.878723,136.310577 756.982788,146.811249 756.779480,157.304535 
	C756.548279,169.236938 751.686890,177.087921 743.106262,180.124481 
	C727.433838,185.670761 712.349304,175.513550 711.952698,158.890564 
	C711.670532,147.067047 711.707397,135.229187 711.929626,123.403877 
	C712.013000,118.970863 710.287109,117.588379 706.092285,117.592003 
	C588.129333,117.693779 470.166290,117.731117 352.203247,117.775452 
	C341.270599,117.779564 341.291992,117.769051 341.555847,106.710983 
	C341.698914,100.716217 342.014526,94.708298 341.759705,88.727295 
	C341.584930,84.625671 343.019775,82.938347 347.069489,82.972763 
	C358.728485,83.071831 370.388458,83.063103 382.048065,83.074043 
	C419.532043,83.109230 457.016052,83.134201 495.000061,83.163116 
z"/>
<path fill="#FAFEFD" opacity="1.000000" stroke="none" 
	d="
M617.084839,749.000000 
	C617.240051,713.009521 617.391907,677.518982 617.560303,642.028564 
	C617.568176,640.365723 617.640015,638.694275 617.823120,637.042542 
	C618.895996,627.361267 623.924744,621.962646 633.651855,621.720825 
	C653.463135,621.228333 673.289307,621.316467 693.109558,621.216248 
	C696.935547,621.196899 700.791687,621.148560 704.583557,621.568176 
	C713.654419,622.571899 718.517334,627.373108 719.068848,636.459167 
	C719.522217,643.927246 719.217957,651.442444 719.218567,658.936768 
	C719.223572,722.758545 719.223022,786.580322 719.216431,850.402100 
	C719.216125,853.234253 719.216309,856.069824 719.087891,858.897949 
	C718.564941,870.414551 712.955322,875.848999 701.346863,875.856079 
	C686.525330,875.865173 671.703796,875.693604 656.882080,875.642273 
	C650.717773,875.620972 644.552917,875.750061 638.388428,875.739685 
	C624.660156,875.716492 617.206970,870.357483 617.311157,855.476379 
	C617.494263,829.317993 617.161499,803.156189 617.069336,776.995728 
	C617.037109,767.830627 617.077515,758.665222 617.084839,749.000000 
M689.867737,841.989563 
	C689.922424,839.825745 690.022461,837.661987 690.025146,835.498108 
	C690.075623,794.524963 690.119873,753.551880 690.153381,712.578735 
	C690.168396,694.257202 690.157410,675.935669 690.157471,657.614136 
	C690.157532,651.407837 689.664062,650.955444 683.299866,650.967346 
	C673.807556,650.985046 664.314880,650.928833 654.822754,650.970276 
	C646.880493,651.004883 646.929504,651.046753 646.939087,658.989990 
	C647.012268,719.614563 647.117920,780.239258 647.014771,840.863586 
	C647.007202,845.301270 648.788635,846.416443 652.538330,846.377319 
	C663.361267,846.264709 674.188904,846.309326 685.002869,845.942688 
	C686.625854,845.887695 688.185242,843.958069 689.867737,841.989563 
z"/>
<path fill="#FAFDFD" opacity="1.000000" stroke="none" 
	d="
M589.903076,777.000000 
	C589.872192,803.155396 589.841064,828.810730 589.805359,854.466125 
	C589.803467,855.798462 589.814575,857.134094 589.732117,858.462708 
	C588.968811,870.755066 583.687927,875.881409 571.398560,875.868408 
	C549.915527,875.845642 528.432129,875.728577 506.949951,875.531616 
	C494.376251,875.416321 488.431641,869.872375 488.369720,857.255066 
	C488.130157,808.446594 488.058685,759.636536 488.177490,710.827637 
	C488.207764,698.389832 494.070587,692.802551 506.439117,692.708069 
	C528.088135,692.542786 549.740234,692.528992 571.389160,692.697205 
	C584.144714,692.796265 589.826172,698.695679 589.877930,711.531128 
	C589.965271,733.187073 589.901855,754.843689 589.903076,777.000000 
M517.530518,813.501343 
	C517.622192,822.656433 517.847656,831.813110 517.742493,840.965942 
	C517.697754,844.860352 519.111694,846.263000 523.002747,846.175720 
	C532.992371,845.951477 542.989502,846.087830 552.982117,845.960632 
	C560.096191,845.869995 560.251282,845.666748 560.278809,838.603516 
	C560.423401,801.463379 560.477661,764.322693 560.763611,727.183777 
	C560.798462,722.652344 559.155457,721.432556 554.936707,721.546082 
	C544.618652,721.823853 534.291626,721.776550 523.968140,721.844421 
	C517.444824,721.887268 517.299377,721.874756 517.304993,728.555969 
	C517.328552,756.537659 517.446838,784.519287 517.530518,813.501343 
z"/>
<path fill="#FAFEFD" opacity="1.000000" stroke="none" 
	d="
M359.170563,862.374390 
	C359.065399,834.466492 358.804688,806.991638 359.070099,779.521912 
	C359.168518,769.337402 365.093079,763.918396 375.322205,763.861206 
	C398.636078,763.730957 421.952148,763.814575 445.266083,763.984497 
	C453.382202,764.043640 459.032166,769.194885 459.843079,778.127930 
	C460.729095,787.888672 460.747833,797.743408 460.817230,807.559448 
	C460.925507,822.880859 460.763306,838.204285 460.699036,853.526794 
	C460.692749,855.024048 460.620667,856.525024 460.493500,858.016968 
	C459.384247,871.032654 454.400543,875.806213 441.380829,875.843750 
	C420.242798,875.904724 399.103912,875.841614 377.966095,875.713684 
	C367.155273,875.648254 361.788513,871.830811 359.170563,862.374390 
M400.530518,792.717957 
	C398.031433,792.726685 395.525482,792.856873 393.034912,792.715576 
	C389.339447,792.505859 387.973053,794.210876 388.025116,797.791077 
	C388.233459,812.120728 388.383240,826.452087 388.411957,840.783020 
	C388.419769,844.680420 390.007080,846.006104 393.868530,845.915955 
	C403.695129,845.686707 413.535736,845.577026 423.358307,845.856323 
	C428.303040,845.996887 430.363159,844.281128 430.359833,839.309021 
	C430.350739,825.814514 430.434418,812.316162 430.781830,798.827087 
	C430.904205,794.075500 428.823395,792.665100 424.512390,792.731262 
	C416.850464,792.848755 409.184937,792.735413 400.530518,792.717957 
z"/>
<path fill="#1EAF88" opacity="1.000000" stroke="none" 
	d="
M819.963318,778.000000 
	C819.924866,797.993103 819.908264,817.486328 819.838013,836.979309 
	C819.806396,845.758728 819.591003,845.930664 811.019592,846.110107 
	C802.025818,846.298279 793.032288,846.495667 784.038269,846.673767 
	C777.229553,846.808655 776.706604,846.301514 776.700562,839.293274 
	C776.657593,789.476990 776.650757,739.660706 776.586426,689.844421 
	C776.524719,642.029114 776.396484,594.213867 776.325073,546.398621 
	C776.312134,537.737305 776.485474,529.075623 776.466370,520.414368 
	C776.458130,516.651794 778.022339,515.040955 781.896057,515.063904 
	C792.223572,515.125183 802.552551,514.919739 812.881104,514.842529 
	C819.259216,514.794861 819.883484,515.423706 819.907227,522.074829 
	C819.948181,533.571228 819.960388,545.067810 819.961060,556.564270 
	C819.965454,630.209534 819.963318,703.854736 819.963318,778.000000 
z"/>
<path fill="#1EAF88" opacity="1.000000" stroke="none" 
	d="
M204.023819,372.012146 
	C203.989563,357.144684 203.989548,357.146210 218.449753,357.327515 
	C229.935394,357.471497 241.420883,357.675781 252.906876,357.710419 
	C256.051239,357.719879 259.263519,357.529846 262.329224,356.883759 
	C270.031952,355.260376 274.271851,350.470947 274.401672,342.570007 
	C274.669800,326.253723 274.641754,309.930573 274.548187,293.611359 
	C274.514221,287.685242 274.952240,286.951935 280.880707,286.935608 
	C289.706909,286.911316 298.541718,287.129486 307.355835,286.795166 
	C311.901764,286.622772 313.182617,288.446106 313.148224,292.622803 
	C313.030304,306.945099 313.096924,321.269135 313.137970,335.592346 
	C313.145111,338.084930 313.190643,340.601196 313.525635,343.064758 
	C314.692169,351.642761 319.171387,356.681702 327.763214,357.058319 
	C341.051392,357.640778 354.381714,357.272064 367.694183,357.284668 
	C371.689392,357.288422 375.685242,357.248993 379.679688,357.172028 
	C382.333374,357.120880 383.694153,358.211823 383.649658,361.003876 
	C383.479889,371.654572 383.361786,382.306152 383.245667,392.957611 
	C383.205048,396.683197 380.336273,396.054718 378.197662,396.070526 
	C363.876373,396.176422 349.554138,396.164429 335.232239,396.182434 
	C317.790070,396.204376 313.120605,400.903107 313.102814,418.517365 
	C313.088867,432.339996 313.145721,446.162781 313.086182,459.985138 
	C313.055389,467.136993 312.792664,467.193146 305.839783,467.074951 
	C297.349701,466.930634 288.845428,466.757721 280.367615,467.100403 
	C275.821716,467.284149 274.526123,465.502899 274.552094,461.337555 
	C274.642365,446.850433 274.555542,432.362183 274.518402,417.874390 
	C274.514130,416.210846 274.439148,414.544922 274.328918,412.884613 
	C273.563110,401.352417 268.603577,396.409668 256.963928,396.155304 
	C247.476807,395.947968 237.980286,396.166595 228.487946,396.203217 
	C222.159744,396.227631 215.826691,396.124481 209.505188,396.346100 
	C205.556335,396.484558 203.722534,395.434235 203.998718,390.988525 
	C204.379959,384.851715 204.054871,378.671021 204.023819,372.012146 
z"/>
<path fill="#1EAF88" opacity="1.000000" stroke="none" 
	d="
M689.820923,842.442566 
	C688.185242,843.958069 686.625854,845.887695 685.002869,845.942688 
	C674.188904,846.309326 663.361267,846.264709 652.538330,846.377319 
	C648.788635,846.416443 647.007202,845.301270 647.014771,840.863586 
	C647.117920,780.239258 647.012268,719.614563 646.939087,658.989990 
	C646.929504,651.046753 646.880493,651.004883 654.822754,650.970276 
	C664.314880,650.928833 673.807556,650.985046 683.299866,650.967346 
	C689.664062,650.955444 690.157532,651.407837 690.157471,657.614136 
	C690.157410,675.935669 690.168396,694.257202 690.153381,712.578735 
	C690.119873,753.551880 690.075623,794.524963 690.025146,835.498108 
	C690.022461,837.661987 689.922424,839.825745 689.820923,842.442566 
z"/>
<path fill="#1EAF88" opacity="1.000000" stroke="none" 
	d="
M517.530518,813.001160 
	C517.446838,784.519287 517.328552,756.537659 517.304993,728.555969 
	C517.299377,721.874756 517.444824,721.887268 523.968140,721.844421 
	C534.291626,721.776550 544.618652,721.823853 554.936707,721.546082 
	C559.155457,721.432556 560.798462,722.652344 560.763611,727.183777 
	C560.477661,764.322693 560.423401,801.463379 560.278809,838.603516 
	C560.251282,845.666748 560.096191,845.869995 552.982117,845.960632 
	C542.989502,846.087830 532.992371,845.951477 523.002747,846.175720 
	C519.111694,846.263000 517.697754,844.860352 517.742493,840.965942 
	C517.847656,831.813110 517.622192,822.656433 517.530518,813.001160 
z"/>
<path fill="#21B08A" opacity="1.000000" stroke="none" 
	d="
M401.025726,792.718262 
	C409.184937,792.735413 416.850464,792.848755 424.512390,792.731262 
	C428.823395,792.665100 430.904205,794.075500 430.781830,798.827087 
	C430.434418,812.316162 430.350739,825.814514 430.359833,839.309021 
	C430.363159,844.281128 428.303040,845.996887 423.358307,845.856323 
	C413.535736,845.577026 403.695129,845.686707 393.868530,845.915955 
	C390.007080,846.006104 388.419769,844.680420 388.411957,840.783020 
	C388.383240,826.452087 388.233459,812.120728 388.025116,797.791077 
	C387.973053,794.210876 389.339447,792.505859 393.034912,792.715576 
	C395.525482,792.856873 398.031433,792.726685 401.025726,792.718262 
z"/>
</svg>