<svg xmlns="http://www.w3.org/2000/svg" viewBox="0 0 128 128" fill="none" role="img" aria-label="FlowMedi icon">
  <defs>
    <linearGradient id="flowmediBrandGradient" x1="20" y1="110" x2="108" y2="18" gradientUnits="userSpaceOnUse">
      <stop stop-color="#02D62A" />
      <stop offset="1" stop-color="#1290DA" />
    </linearGradient>
  </defs>

  <path
    d="M44 16h40M33 16h2M93 16h2M95 16h5c11.05 0 20 8.95 20 20v54c0 11.05-8.95 20-20 20H33c-11.05 0-20-8.95-20-20V36c0-11.05 8.95-20 20-20h5"
    stroke="url(#flowmediBrandGradient)"
    stroke-width="5.5"
    stroke-linecap="round"
    stroke-linejoin="round"
  />

  <path
    d="M37 34h9v-9h9v9h9v9h-9v9h-9v-9h-9z"
    stroke="url(#flowmediBrandGradient)"
    stroke-width="5"
    stroke-linejoin="round"
  />

  <path
    d="M32 68h20l6-10 8 19 9-31 8 24 7-12h18"
    stroke="url(#flowmediBrandGradient)"
    stroke-width="5"
    stroke-linecap="round"
    stroke-linejoin="round"
  />

  <path d="M70 89v13M84 82v20M98 74v28" stroke="url(#flowmediBrandGradient)" stroke-width="5" stroke-linecap="round" />
  <path d="M84 82h15l14-16" stroke="url(#flowmediBrandGradient)" stroke-width="5" stroke-linecap="round" stroke-linejoin="round" />
</svg>
