<?xml version="1.0" encoding="UTF-8"?>
<svg version="1.1" xmlns="http://www.w3.org/2000/svg" width="1024" height="1024">
<path d="M0 0 C0.70548981 0.00202423 1.41097961 0.00404846 2.1378479 0.00613403 C3.24756454 0.00350555 3.24756454 0.00350555 4.37969971 0.00082397 C6.83686638 -0.00359453 9.29396168 -0.00065657 11.75112915 0.00271606 C13.45124322 0.00204302 15.1513572 0.001073 16.85147095 -0.00018311 C20.41926996 -0.00166008 23.98704398 0.00049445 27.55484009 0.00515747 C32.13851409 0.01085476 36.72212954 0.00757575 41.30580139 0.00158501 C44.81782476 -0.00202063 48.32983414 -0.00088201 51.84185791 0.0017128 C53.53243008 0.00238206 55.22300351 0.00155367 56.91357422 -0.00076675 C59.27222072 -0.00329332 61.6307711 0.00054735 63.9894104 0.00613403 C64.69490021 0.0041098 65.40039001 0.00208557 66.1272583 0 C70.94936644 0.02126585 70.94936644 0.02126585 72.06362915 1.13552856 C74.06471972 1.26971468 76.07021315 1.33914852 78.0753479 1.38162231 C79.30833618 1.41449341 80.54132446 1.4473645 81.81167603 1.48123169 C84.41836877 1.54197267 87.02514308 1.59931672 89.63198853 1.65310669 C91.49113892 1.70434692 91.49113892 1.70434692 93.3878479 1.75662231 C95.09073975 1.79420654 95.09073975 1.79420654 96.82803345 1.83255005 C100.18289171 2.14669621 102.8984839 3.01650187 106.06362915 4.13552856 C109.35931513 4.43116604 112.63046945 4.59538408 115.93667603 4.70193481 C117.64996024 4.78051016 119.35855246 4.95051408 121.06362915 5.13552856 C121.39362915 5.79552856 121.72362915 6.45552856 122.06362915 7.13552856 C123.27921509 7.1961145 124.49480103 7.25670044 125.7472229 7.31912231 C127.33187143 7.40351188 128.91650617 7.48816067 130.50112915 7.57302856 C131.30357056 7.61234497 132.10601196 7.65166138 132.93276978 7.69216919 C138.9503479 8.02224731 138.9503479 8.02224731 140.06362915 9.13552856 C141.57832363 9.36745721 143.10117477 9.54768095 144.62612915 9.69802856 C145.45241821 9.78181763 146.27870728 9.86560669 147.1300354 9.95193481 C147.76812134 10.01252075 148.40620728 10.07310669 149.06362915 10.13552856 C149.39362915 11.12552856 149.72362915 12.11552856 150.06362915 13.13552856 C153.36362915 13.13552856 156.66362915 13.13552856 160.06362915 13.13552856 C160.39362915 14.12552856 160.72362915 15.11552856 161.06362915 16.13552856 C164.36362915 16.13552856 167.66362915 16.13552856 171.06362915 16.13552856 C171.06362915 16.79552856 171.06362915 17.45552856 171.06362915 18.13552856 C172.98175415 18.10459106 172.98175415 18.10459106 174.93862915 18.07302856 C178.81362915 18.01052856 178.81362915 18.01052856 181.06362915 19.13552856 C181.06362915 19.79552856 181.06362915 20.45552856 181.06362915 21.13552856 C182.25987915 21.09427856 183.45612915 21.05302856 184.68862915 21.01052856 C188.54926123 21.01727792 191.429948 21.75472973 195.06362915 23.13552856 C197.70304451 23.8528048 200.34329311 24.56443917 202.9894104 25.25662231 C203.67390259 25.54666138 204.35839478 25.83670044 205.06362915 26.13552856 C205.39362915 27.12552856 205.72362915 28.11552856 206.06362915 29.13552856 C208.37362915 29.13552856 210.68362915 29.13552856 213.06362915 29.13552856 C213.06362915 29.79552856 213.06362915 30.45552856 213.06362915 31.13552856 C214.71362915 31.13552856 216.36362915 31.13552856 218.06362915 31.13552856 C218.39362915 32.12552856 218.72362915 33.11552856 219.06362915 34.13552856 C221.04362915 34.13552856 223.02362915 34.13552856 225.06362915 34.13552856 C225.39362915 35.12552856 225.72362915 36.11552856 226.06362915 37.13552856 C228.04362915 37.13552856 230.02362915 37.13552856 232.06362915 37.13552856 C232.06362915 37.79552856 232.06362915 38.45552856 232.06362915 39.13552856 C233.71362915 39.13552856 235.36362915 39.13552856 237.06362915 39.13552856 C237.06362915 40.12552856 237.06362915 41.11552856 237.06362915 42.13552856 C238.71362915 42.13552856 240.36362915 42.13552856 242.06362915 42.13552856 C242.06362915 42.79552856 242.06362915 43.45552856 242.06362915 44.13552856 C244.04362915 44.46552856 246.02362915 44.79552856 248.06362915 45.13552856 C248.06362915 45.79552856 248.06362915 46.45552856 248.06362915 47.13552856 C249.71362915 47.13552856 251.36362915 47.13552856 253.06362915 47.13552856 C253.06362915 48.12552856 253.06362915 49.11552856 253.06362915 50.13552856 C254.71362915 50.13552856 256.36362915 50.13552856 258.06362915 50.13552856 C258.06362915 50.79552856 258.06362915 51.45552856 258.06362915 52.13552856 C259.71362915 52.46552856 261.36362915 52.79552856 263.06362915 53.13552856 C263.06362915 53.79552856 263.06362915 54.45552856 263.06362915 55.13552856 C264.71362915 55.46552856 266.36362915 55.79552856 268.06362915 56.13552856 C268.06362915 56.79552856 268.06362915 57.45552856 268.06362915 58.13552856 C269.05362915 58.13552856 270.04362915 58.13552856 271.06362915 58.13552856 C271.06362915 58.79552856 271.06362915 59.45552856 271.06362915 60.13552856 C272.71362915 60.13552856 274.36362915 60.13552856 276.06362915 60.13552856 C276.39362915 61.12552856 276.72362915 62.11552856 277.06362915 63.13552856 C278.17737915 63.32115356 278.17737915 63.32115356 279.31362915 63.51052856 C281.865044 64.09039558 283.79038645 64.87261596 286.06362915 66.13552856 C286.06362915 66.79552856 286.06362915 67.45552856 286.06362915 68.13552856 C287.38362915 68.46552856 288.70362915 68.79552856 290.06362915 69.13552856 C290.06362915 69.79552856 290.06362915 70.45552856 290.06362915 71.13552856 C291.38362915 71.13552856 292.70362915 71.13552856 294.06362915 71.13552856 C294.06362915 71.79552856 294.06362915 72.45552856 294.06362915 73.13552856 C295.05362915 73.13552856 296.04362915 73.13552856 297.06362915 73.13552856 C297.39362915 73.79552856 297.72362915 74.45552856 298.06362915 75.13552856 C300.08032742 76.2690339 300.08032742 76.2690339 302.06362915 77.13552856 C302.06362915 77.79552856 302.06362915 78.45552856 302.06362915 79.13552856 C303.05362915 79.13552856 304.04362915 79.13552856 305.06362915 79.13552856 C305.06362915 79.79552856 305.06362915 80.45552856 305.06362915 81.13552856 C306.05362915 81.13552856 307.04362915 81.13552856 308.06362915 81.13552856 C308.06362915 82.12552856 308.06362915 83.11552856 308.06362915 84.13552856 C309.71362915 84.46552856 311.36362915 84.79552856 313.06362915 85.13552856 C313.06362915 85.79552856 313.06362915 86.45552856 313.06362915 87.13552856 C314.05362915 87.13552856 315.04362915 87.13552856 316.06362915 87.13552856 C316.06362915 87.79552856 316.06362915 88.45552856 316.06362915 89.13552856 C317.05362915 89.46552856 318.04362915 89.79552856 319.06362915 90.13552856 C319.06362915 90.79552856 319.06362915 91.45552856 319.06362915 92.13552856 C320.23925415 92.59959106 320.23925415 92.59959106 321.43862915 93.07302856 C324.06362915 94.13552856 324.06362915 94.13552856 326.06362915 95.13552856 C326.06362915 95.79552856 326.06362915 96.45552856 326.06362915 97.13552856 C327.05362915 97.13552856 328.04362915 97.13552856 329.06362915 97.13552856 C329.06362915 98.12552856 329.06362915 99.11552856 329.06362915 100.13552856 C330.05362915 100.13552856 331.04362915 100.13552856 332.06362915 100.13552856 C332.06362915 100.79552856 332.06362915 101.45552856 332.06362915 102.13552856 C332.72362915 102.13552856 333.38362915 102.13552856 334.06362915 102.13552856 C334.06362915 103.12552856 334.06362915 104.11552856 334.06362915 105.13552856 C334.78550415 105.19740356 335.50737915 105.25927856 336.25112915 105.32302856 C339.92936127 106.38562896 341.49090841 108.3596983 344.06362915 111.13552856 C345.05362915 111.79552856 346.04362915 112.45552856 347.06362915 113.13552856 C347.06362915 113.79552856 347.06362915 114.45552856 347.06362915 115.13552856 C348.05362915 115.46552856 349.04362915 115.79552856 350.06362915 116.13552856 C350.06362915 116.79552856 350.06362915 117.45552856 350.06362915 118.13552856 C351.05362915 118.46552856 352.04362915 118.79552856 353.06362915 119.13552856 C353.06362915 119.79552856 353.06362915 120.45552856 353.06362915 121.13552856 C353.72362915 121.13552856 354.38362915 121.13552856 355.06362915 121.13552856 C355.06362915 121.79552856 355.06362915 122.45552856 355.06362915 123.13552856 C356.05362915 123.13552856 357.04362915 123.13552856 358.06362915 123.13552856 C358.06362915 124.12552856 358.06362915 125.11552856 358.06362915 126.13552856 C358.70300415 126.40365356 359.34237915 126.67177856 360.00112915 126.94802856 C362.06362915 128.13552856 362.06362915 128.13552856 363.06362915 131.13552856 C364.05362915 131.13552856 365.04362915 131.13552856 366.06362915 131.13552856 C366.06362915 132.12552856 366.06362915 133.11552856 366.06362915 134.13552856 C366.72362915 134.13552856 367.38362915 134.13552856 368.06362915 134.13552856 C368.06362915 134.79552856 368.06362915 135.45552856 368.06362915 136.13552856 C369.05362915 136.46552856 370.04362915 136.79552856 371.06362915 137.13552856 C371.06362915 137.79552856 371.06362915 138.45552856 371.06362915 139.13552856 C372.05362915 139.46552856 373.04362915 139.79552856 374.06362915 140.13552856 C374.06362915 140.79552856 374.06362915 141.45552856 374.06362915 142.13552856 C374.72362915 142.13552856 375.38362915 142.13552856 376.06362915 142.13552856 C376.06362915 143.12552856 376.06362915 144.11552856 376.06362915 145.13552856 C377.05362915 145.46552856 378.04362915 145.79552856 379.06362915 146.13552856 C379.06362915 147.12552856 379.06362915 148.11552856 379.06362915 149.13552856 C380.05362915 149.46552856 381.04362915 149.79552856 382.06362915 150.13552856 C382.06362915 150.79552856 382.06362915 151.45552856 382.06362915 152.13552856 C382.72362915 152.13552856 383.38362915 152.13552856 384.06362915 152.13552856 C384.06362915 153.12552856 384.06362915 154.11552856 384.06362915 155.13552856 C385.05362915 155.13552856 386.04362915 155.13552856 387.06362915 155.13552856 C387.06362915 156.12552856 387.06362915 157.11552856 387.06362915 158.13552856 C387.72362915 158.13552856 388.38362915 158.13552856 389.06362915 158.13552856 C389.06362915 158.79552856 389.06362915 159.45552856 389.06362915 160.13552856 C390.05362915 160.46552856 391.04362915 160.79552856 392.06362915 161.13552856 C392.06362915 162.45552856 392.06362915 163.77552856 392.06362915 165.13552856 C393.05362915 165.13552856 394.04362915 165.13552856 395.06362915 165.13552856 C395.06362915 166.12552856 395.06362915 167.11552856 395.06362915 168.13552856 C395.72362915 168.13552856 396.38362915 168.13552856 397.06362915 168.13552856 C397.06362915 169.12552856 397.06362915 170.11552856 397.06362915 171.13552856 C398.05362915 171.13552856 399.04362915 171.13552856 400.06362915 171.13552856 C403.93862915 177.76052856 403.93862915 177.76052856 405.06362915 181.13552856 C406.05362915 181.46552856 407.04362915 181.79552856 408.06362915 182.13552856 C408.06362915 183.45552856 408.06362915 184.77552856 408.06362915 186.13552856 C408.72362915 186.13552856 409.38362915 186.13552856 410.06362915 186.13552856 C410.06362915 187.12552856 410.06362915 188.11552856 410.06362915 189.13552856 C411.05362915 189.13552856 412.04362915 189.13552856 413.06362915 189.13552856 C413.06362915 190.78552856 413.06362915 192.43552856 413.06362915 194.13552856 C414.05362915 194.13552856 415.04362915 194.13552856 416.06362915 194.13552856 C417.82825598 197.22362552 418.06362915 198.36864992 418.06362915 202.13552856 C419.05362915 202.13552856 420.04362915 202.13552856 421.06362915 202.13552856 C421.06362915 203.78552856 421.06362915 205.43552856 421.06362915 207.13552856 C422.05362915 207.46552856 423.04362915 207.79552856 424.06362915 208.13552856 C424.73029582 210.4688619 425.39696248 212.80219523 426.06362915 215.13552856 C427.05362915 215.46552856 428.04362915 215.79552856 429.06362915 216.13552856 C429.06362915 217.45552856 429.06362915 218.77552856 429.06362915 220.13552856 C429.72362915 220.13552856 430.38362915 220.13552856 431.06362915 220.13552856 C431.32917603 220.68982544 431.5947229 221.24412231 431.86831665 221.81521606 C432.39812134 222.90189575 432.39812134 222.90189575 432.93862915 224.01052856 C433.28667603 224.72982544 433.6347229 225.44912231 433.99331665 226.19021606 C435.02920458 228.28687876 435.02920458 228.28687876 437.06362915 230.13552856 C437.06362915 231.45552856 437.06362915 232.77552856 437.06362915 234.13552856 C437.72362915 234.13552856 438.38362915 234.13552856 439.06362915 234.13552856 C439.06362915 235.78552856 439.06362915 237.43552856 439.06362915 239.13552856 C440.05362915 239.46552856 441.04362915 239.79552856 442.06362915 240.13552856 C442.06362915 241.45552856 442.06362915 242.77552856 442.06362915 244.13552856 C442.72362915 244.13552856 443.38362915 244.13552856 444.06362915 244.13552856 C444.39362915 246.11552856 444.72362915 248.09552856 445.06362915 250.13552856 C445.72362915 250.13552856 446.38362915 250.13552856 447.06362915 250.13552856 C447.18737915 251.10490356 447.31112915 252.07427856 447.43862915 253.07302856 C447.64487915 254.08365356 447.85112915 255.09427856 448.06362915 256.13552856 C448.72362915 256.46552856 449.38362915 256.79552856 450.06362915 257.13552856 C450.91519165 259.06130981 450.91519165 259.06130981 451.68862915 261.44802856 C451.94901978 262.22791138 452.2094104 263.00779419 452.47769165 263.81130981 C453.06362915 266.13552856 453.06362915 266.13552856 453.06362915 270.13552856 C453.72362915 270.13552856 454.38362915 270.13552856 455.06362915 270.13552856 C455.06362915 272.11552856 455.06362915 274.09552856 455.06362915 276.13552856 C455.72362915 276.13552856 456.38362915 276.13552856 457.06362915 276.13552856 C458.41802583 278.84432192 458.12864366 281.14486124 458.06362915 284.13552856 C458.72362915 284.13552856 459.38362915 284.13552856 460.06362915 284.13552856 C460.18737915 285.26990356 460.31112915 286.40427856 460.43862915 287.57302856 C460.74800415 289.33646606 460.74800415 289.33646606 461.06362915 291.13552856 C461.72362915 291.46552856 462.38362915 291.79552856 463.06362915 292.13552856 C463.40904766 294.46710349 463.74157172 296.80061217 464.06362915 299.13552856 C464.72362915 300.12552856 465.38362915 301.11552856 466.06362915 302.13552856 C468.40566752 307.47017152 468.26670162 312.42693585 468.06362915 318.13552856 C469.05362915 318.46552856 470.04362915 318.79552856 471.06362915 319.13552856 C471.06362915 322.10552856 471.06362915 325.07552856 471.06362915 328.13552856 C471.72362915 328.13552856 472.38362915 328.13552856 473.06362915 328.13552856 C474.34680807 331.98506533 474.13006552 335.08290991 474.06362915 339.13552856 C474.72362915 339.13552856 475.38362915 339.13552856 476.06362915 339.13552856 C476.06362915 343.42552856 476.06362915 347.71552856 476.06362915 352.13552856 C476.72362915 352.13552856 477.38362915 352.13552856 478.06362915 352.13552856 C479.57944572 356.68297829 479.50951882 361.31553027 479.78237915 366.08084106 C479.72371819 369.00871705 479.72371819 369.00871705 481.06362915 370.13552856 C481.1963812 371.67235291 481.26691089 373.21466923 481.3097229 374.75662231 C481.34259399 375.69183716 481.37546509 376.627052 481.40933228 377.59060669 C481.47040649 379.57486887 481.5277137 381.55925067 481.58120728 383.54373169 C481.63244751 384.94848755 481.63244751 384.94848755 481.6847229 386.38162231 C481.72230713 387.67604248 481.72230713 387.67604248 481.76065063 388.99661255 C481.87515382 391.34768373 481.87515382 391.34768373 484.06362915 393.13552856 C484.31759644 395.64041138 484.31759644 395.64041138 484.32241821 398.83865356 C484.32872253 400.03329224 484.33502686 401.22793091 484.34152222 402.45877075 C484.33544952 404.40251587 484.33544952 404.40251587 484.32925415 406.38552856 C484.33060093 407.72309439 484.33254158 409.06065973 484.33505249 410.39822388 C484.33800315 413.20263323 484.33370809 416.00691525 484.32437134 418.81130981 C484.31297669 422.40957779 484.31953649 426.00754742 484.33151627 429.60580444 C484.33873651 432.36813615 484.33644621 435.13039689 484.33126068 437.89273071 C484.3292739 439.8659179 484.33535757 441.83910782 484.34152222 443.81228638 C484.3352179 445.00692505 484.32891357 446.20156372 484.32241821 447.43240356 C484.32003143 449.01553345 484.32003143 449.01553345 484.31759644 450.63064575 C484.06362915 453.13552856 484.06362915 453.13552856 482.06362915 455.13552856 C481.69310922 457.46006247 481.69310922 457.46006247 481.64956665 460.14334106 C481.61089478 461.12947388 481.5722229 462.11560669 481.53237915 463.13162231 C481.50144165 464.16416138 481.47050415 465.19670044 481.43862915 466.26052856 C481.39995728 467.300802 481.3612854 468.34107544 481.32144165 469.41287231 C481.22698149 471.98691168 481.14141701 474.56094011 481.06362915 477.13552856 C480.40362915 477.13552856 479.74362915 477.13552856 479.06362915 477.13552856 C479.07523071 478.12295044 479.08683228 479.11037231 479.0987854 480.12771606 C479.11232056 482.04970825 479.11232056 482.04970825 479.12612915 484.01052856 C479.13773071 485.28670044 479.14933228 486.56287231 479.1612854 487.87771606 C479.06362915 491.13552856 479.06362915 491.13552856 478.06362915 493.13552856 C477.40362915 493.13552856 476.74362915 493.13552856 476.06362915 493.13552856 C476.08683228 494.06494263 476.1100354 494.99435669 476.13394165 495.95193481 C476.22871185 502.44369347 476.27607542 508.01876534 474.06362915 514.13552856 C473.70991417 515.79798897 473.36767593 517.46327127 473.06362915 519.13552856 C472.40362915 519.13552856 471.74362915 519.13552856 471.06362915 519.13552856 C471.06362915 521.77552856 471.06362915 524.41552856 471.06362915 527.13552856 C470.07362915 527.13552856 469.08362915 527.13552856 468.06362915 527.13552856 C468.09843384 527.7529895 468.13323853 528.37045044 468.1690979 529.00662231 C468.37092641 535.32097153 467.43572319 540.29001111 465.06362915 546.13552856 C464.40362915 546.13552856 463.74362915 546.13552856 463.06362915 546.13552856 C463.06362915 548.44552856 463.06362915 550.75552856 463.06362915 553.13552856 C462.40362915 553.46552856 461.74362915 553.79552856 461.06362915 554.13552856 C460.65633687 556.45709454 460.31924238 558.79240726 460.06362915 561.13552856 C459.40362915 561.13552856 458.74362915 561.13552856 458.06362915 561.13552856 C458.09456665 562.55865356 458.09456665 562.55865356 458.12612915 564.01052856 C458.06362915 567.13552856 458.06362915 567.13552856 457.06362915 569.13552856 C456.40362915 569.13552856 455.74362915 569.13552856 455.06362915 569.13552856 C455.14612915 570.14615356 455.22862915 571.15677856 455.31362915 572.19802856 C455.00179119 577.10947646 453.66295337 579.0071901 451.06362915 583.13552856 C450.36076612 584.78725668 449.67707672 586.44854774 449.06362915 588.13552856 C448.40362915 588.13552856 447.74362915 588.13552856 447.06362915 588.13552856 C447.12550415 588.98115356 447.18737915 589.82677856 447.25112915 590.69802856 C447.02347287 594.87172699 445.86155101 597.38985803 444.06362915 601.13552856 C443.40362915 601.13552856 442.74362915 601.13552856 442.06362915 601.13552856 C441.73362915 602.78552856 441.40362915 604.43552856 441.06362915 606.13552856 C440.40362915 606.13552856 439.74362915 606.13552856 439.06362915 606.13552856 C439.06362915 607.78552856 439.06362915 609.43552856 439.06362915 611.13552856 C438.40362915 611.13552856 437.74362915 611.13552856 437.06362915 611.13552856 C436.73362915 612.78552856 436.40362915 614.43552856 436.06362915 616.13552856 C435.40362915 616.13552856 434.74362915 616.13552856 434.06362915 616.13552856 C433.93987915 616.69240356 433.81612915 617.24927856 433.68862915 617.82302856 C433.0038606 620.35667221 432.07229152 622.71473888 431.06362915 625.13552856 C430.40362915 625.13552856 429.74362915 625.13552856 429.06362915 625.13552856 C428.73362915 626.78552856 428.40362915 628.43552856 428.06362915 630.13552856 C427.40362915 630.13552856 426.74362915 630.13552856 426.06362915 630.13552856 C425.93987915 630.71302856 425.81612915 631.29052856 425.68862915 631.88552856 C425.05714091 634.15888623 424.17504724 636.06088146 423.06362915 638.13552856 C422.40362915 638.13552856 421.74362915 638.13552856 421.06362915 638.13552856 C420.73362915 639.78552856 420.40362915 641.43552856 420.06362915 643.13552856 C419.40362915 643.13552856 418.74362915 643.13552856 418.06362915 643.13552856 C417.91925415 643.89865356 417.77487915 644.66177856 417.62612915 645.44802856 C417.06362915 648.13552856 417.06362915 648.13552856 416.06362915 651.13552856 C415.40362915 651.46552856 414.74362915 651.79552856 414.06362915 652.13552856 C413.41149623 654.16016112 413.41149623 654.16016112 413.06362915 656.13552856 C412.40362915 656.13552856 411.74362915 656.13552856 411.06362915 656.13552856 C410.73362915 657.78552856 410.40362915 659.43552856 410.06362915 661.13552856 C409.40362915 661.13552856 408.74362915 661.13552856 408.06362915 661.13552856 C407.73362915 662.78552856 407.40362915 664.43552856 407.06362915 666.13552856 C406.40362915 666.13552856 405.74362915 666.13552856 405.06362915 666.13552856 C405.06362915 667.12552856 405.06362915 668.11552856 405.06362915 669.13552856 C404.40362915 669.13552856 403.74362915 669.13552856 403.06362915 669.13552856 C402.73362915 670.78552856 402.40362915 672.43552856 402.06362915 674.13552856 C401.40362915 674.13552856 400.74362915 674.13552856 400.06362915 674.13552856 C400.15644165 675.28021606 400.15644165 675.28021606 400.25112915 676.44802856 C400.06362915 679.13552856 400.06362915 679.13552856 398.68862915 680.94802856 C397.06362915 682.13552856 397.06362915 682.13552856 395.06362915 682.13552856 C395.06362915 683.12552856 395.06362915 684.11552856 395.06362915 685.13552856 C394.07362915 685.13552856 393.08362915 685.13552856 392.06362915 685.13552856 C391.73362915 686.12552856 391.40362915 687.11552856 391.06362915 688.13552856 C390.40362915 688.13552856 389.74362915 688.13552856 389.06362915 688.13552856 C389.06362915 688.79552856 389.06362915 689.45552856 389.06362915 690.13552856 C387.41362915 690.13552856 385.76362915 690.13552856 384.06362915 690.13552856 C384.06362915 691.12552856 384.06362915 692.11552856 384.06362915 693.13552856 C382.41362915 693.13552856 380.76362915 693.13552856 379.06362915 693.13552856 C379.06362915 693.79552856 379.06362915 694.45552856 379.06362915 695.13552856 C376.1816157 695.95826068 373.61586463 696.26387437 370.6222229 696.26834106 C369.79142212 696.26963013 368.96062134 696.27091919 368.10464478 696.27224731 C367.24548462 696.26838013 366.38632446 696.26451294 365.50112915 696.26052856 C364.63810181 696.26439575 363.77507446 696.26826294 362.88589478 696.27224731 C362.05638306 696.27095825 361.22687134 696.26966919 360.3722229 696.26834106 C359.61739624 696.26721313 358.86256958 696.26608521 358.08486938 696.2649231 C356.06362915 696.13552856 356.06362915 696.13552856 353.06362915 695.13552856 C353.06362915 694.47552856 353.06362915 693.81552856 353.06362915 693.13552856 C350.75362915 693.13552856 348.44362915 693.13552856 346.06362915 693.13552856 C345.73362915 692.14552856 345.40362915 691.15552856 345.06362915 690.13552856 C344.07362915 690.13552856 343.08362915 690.13552856 342.06362915 690.13552856 C342.06362915 689.47552856 342.06362915 688.81552856 342.06362915 688.13552856 C340.41362915 687.80552856 338.76362915 687.47552856 337.06362915 687.13552856 C337.06362915 686.47552856 337.06362915 685.81552856 337.06362915 685.13552856 C335.41362915 684.80552856 333.76362915 684.47552856 332.06362915 684.13552856 C332.06362915 683.47552856 332.06362915 682.81552856 332.06362915 682.13552856 C331.30050415 681.99115356 330.53737915 681.84677856 329.75112915 681.69802856 C327.06362915 681.13552856 327.06362915 681.13552856 324.06362915 680.13552856 C324.06362915 679.14552856 324.06362915 678.15552856 324.06362915 677.13552856 C322.41362915 677.13552856 320.76362915 677.13552856 319.06362915 677.13552856 C319.06362915 676.47552856 319.06362915 675.81552856 319.06362915 675.13552856 C317.41362915 674.80552856 315.76362915 674.47552856 314.06362915 674.13552856 C314.06362915 673.47552856 314.06362915 672.81552856 314.06362915 672.13552856 C312.41362915 672.13552856 310.76362915 672.13552856 309.06362915 672.13552856 C308.73362915 671.14552856 308.40362915 670.15552856 308.06362915 669.13552856 C307.30050415 669.01177856 306.53737915 668.88802856 305.75112915 668.76052856 C303.06362915 668.13552856 303.06362915 668.13552856 300.06362915 666.13552856 C300.06362915 665.47552856 300.06362915 664.81552856 300.06362915 664.13552856 C298.41362915 664.13552856 296.76362915 664.13552856 295.06362915 664.13552856 C295.06362915 663.14552856 295.06362915 662.15552856 295.06362915 661.13552856 C293.41362915 661.13552856 291.76362915 661.13552856 290.06362915 661.13552856 C290.06362915 660.47552856 290.06362915 659.81552856 290.06362915 659.13552856 C288.41362915 658.80552856 286.76362915 658.47552856 285.06362915 658.13552856 C285.06362915 657.47552856 285.06362915 656.81552856 285.06362915 656.13552856 C284.30050415 656.01177856 283.53737915 655.88802856 282.75112915 655.76052856 C280.06362915 655.13552856 280.06362915 655.13552856 277.06362915 653.13552856 C277.06362915 652.47552856 277.06362915 651.81552856 277.06362915 651.13552856 C275.41362915 651.13552856 273.76362915 651.13552856 272.06362915 651.13552856 C272.06362915 650.14552856 272.06362915 649.15552856 272.06362915 648.13552856 C270.41362915 648.13552856 268.76362915 648.13552856 267.06362915 648.13552856 C267.06362915 647.47552856 267.06362915 646.81552856 267.06362915 646.13552856 C266.07362915 646.13552856 265.08362915 646.13552856 264.06362915 646.13552856 C264.06362915 645.14552856 264.06362915 644.15552856 264.06362915 643.13552856 C262.41362915 643.13552856 260.76362915 643.13552856 259.06362915 643.13552856 C258.73362915 642.14552856 258.40362915 641.15552856 258.06362915 640.13552856 C257.34175415 640.01177856 256.61987915 639.88802856 255.87612915 639.76052856 C253.10641021 639.14503547 250.66659375 638.25108482 248.06362915 637.13552856 C248.06362915 636.47552856 248.06362915 635.81552856 248.06362915 635.13552856 C247.22058228 634.95183716 247.22058228 634.95183716 246.36050415 634.76443481 C243.87376397 634.08354167 241.65848139 633.14200532 239.31362915 632.07302856 C238.5144104 631.710802 237.71519165 631.34857544 236.89175415 630.97537231 C236.2884729 630.69822388 235.68519165 630.42107544 235.06362915 630.13552856 C235.06362915 629.14552856 235.06362915 628.15552856 235.06362915 627.13552856 C233.41362915 627.13552856 231.76362915 627.13552856 230.06362915 627.13552856 C230.06362915 626.47552856 230.06362915 625.81552856 230.06362915 625.13552856 C229.30050415 625.01177856 228.53737915 624.88802856 227.75112915 624.76052856 C225.06362915 624.13552856 225.06362915 624.13552856 222.06362915 622.13552856 C222.06362915 621.14552856 222.06362915 620.15552856 222.06362915 619.13552856 C221.07362915 619.13552856 220.08362915 619.13552856 219.06362915 619.13552856 C219.06362915 618.47552856 219.06362915 617.81552856 219.06362915 617.13552856 C218.07362915 616.80552856 217.08362915 616.47552856 216.06362915 616.13552856 C216.06362915 615.47552856 216.06362915 614.81552856 216.06362915 614.13552856 C215.40362915 614.13552856 214.74362915 614.13552856 214.06362915 614.13552856 C214.06362915 613.14552856 214.06362915 612.15552856 214.06362915 611.13552856 C213.07362915 610.80552856 212.08362915 610.47552856 211.06362915 610.13552856 C207.52331295 603.86185297 207.66358043 596.74717202 207.81362915 589.76052856 C207.8187854 588.77697388 207.82394165 587.79341919 207.82925415 586.78005981 C207.90779906 579.60301884 207.90779906 579.60301884 209.06362915 576.13552856 C209.72362915 576.13552856 210.38362915 576.13552856 211.06362915 576.13552856 C211.06362915 574.48552856 211.06362915 572.83552856 211.06362915 571.13552856 C212.05362915 570.80552856 213.04362915 570.47552856 214.06362915 570.13552856 C214.06362915 569.14552856 214.06362915 568.15552856 214.06362915 567.13552856 C214.72362915 567.13552856 215.38362915 567.13552856 216.06362915 567.13552856 C216.39362915 565.48552856 216.72362915 563.83552856 217.06362915 562.13552856 C217.72362915 562.13552856 218.38362915 562.13552856 219.06362915 562.13552856 C219.39362915 560.48552856 219.72362915 558.83552856 220.06362915 557.13552856 C220.72362915 557.13552856 221.38362915 557.13552856 222.06362915 557.13552856 C222.06362915 556.14552856 222.06362915 555.15552856 222.06362915 554.13552856 C222.72362915 554.13552856 223.38362915 554.13552856 224.06362915 554.13552856 C223.96050415 553.47552856 223.85737915 552.81552856 223.75112915 552.13552856 C224.13746208 548.42673248 225.5096324 546.52610536 227.5519104 543.47146606 C230.32665487 539.18387642 232.65602396 534.63634377 235.06362915 530.13552856 C235.72362915 530.13552856 236.38362915 530.13552856 237.06362915 530.13552856 C237.39362915 528.48552856 237.72362915 526.83552856 238.06362915 525.13552856 C238.72362915 525.13552856 239.38362915 525.13552856 240.06362915 525.13552856 C240.06362915 524.14552856 240.06362915 523.15552856 240.06362915 522.13552856 C241.05362915 522.13552856 242.04362915 522.13552856 243.06362915 522.13552856 C243.06362915 520.48552856 243.06362915 518.83552856 243.06362915 517.13552856 C243.72362915 517.13552856 244.38362915 517.13552856 245.06362915 517.13552856 C245.39362915 515.48552856 245.72362915 513.83552856 246.06362915 512.13552856 C246.72362915 512.13552856 247.38362915 512.13552856 248.06362915 512.13552856 C248.18737915 511.55802856 248.31112915 510.98052856 248.43862915 510.38552856 C249.07011739 508.1121709 249.95221106 506.21017567 251.06362915 504.13552856 C251.72362915 504.13552856 252.38362915 504.13552856 253.06362915 504.13552856 C253.39362915 502.48552856 253.72362915 500.83552856 254.06362915 499.13552856 C254.72362915 499.13552856 255.38362915 499.13552856 256.06362915 499.13552856 C256.18737915 498.37240356 256.31112915 497.60927856 256.43862915 496.82302856 C257.06362915 494.13552856 257.06362915 494.13552856 259.06362915 491.13552856 C259.72362915 491.13552856 260.38362915 491.13552856 261.06362915 491.13552856 C261.39362915 489.48552856 261.72362915 487.83552856 262.06362915 486.13552856 C262.72362915 486.13552856 263.38362915 486.13552856 264.06362915 486.13552856 C264.06362915 484.48552856 264.06362915 482.83552856 264.06362915 481.13552856 C264.72362915 481.13552856 265.38362915 481.13552856 266.06362915 481.13552856 C266.06362915 480.14552856 266.06362915 479.15552856 266.06362915 478.13552856 C267.05362915 478.13552856 268.04362915 478.13552856 269.06362915 478.13552856 C269.06362915 476.48552856 269.06362915 474.83552856 269.06362915 473.13552856 C269.72362915 473.13552856 270.38362915 473.13552856 271.06362915 473.13552856 C271.39362915 471.15552856 271.72362915 469.17552856 272.06362915 467.13552856 C272.72362915 467.13552856 273.38362915 467.13552856 274.06362915 467.13552856 C274.18737915 466.55802856 274.31112915 465.98052856 274.43862915 465.38552856 C275.07011739 463.1121709 275.95221106 461.21017567 277.06362915 459.13552856 C277.72362915 459.13552856 278.38362915 459.13552856 279.06362915 459.13552856 C279.39362915 457.48552856 279.72362915 455.83552856 280.06362915 454.13552856 C280.72362915 454.13552856 281.38362915 454.13552856 282.06362915 454.13552856 C282.06362915 453.14552856 282.06362915 452.15552856 282.06362915 451.13552856 C282.72362915 450.80552856 283.38362915 450.47552856 284.06362915 450.13552856 C284.71576207 448.11089601 284.71576207 448.11089601 285.06362915 446.13552856 C285.72362915 446.13552856 286.38362915 446.13552856 287.06362915 446.13552856 C287.39362915 444.48552856 287.72362915 442.83552856 288.06362915 441.13552856 C288.72362915 441.13552856 289.38362915 441.13552856 290.06362915 441.13552856 C290.06362915 440.14552856 290.06362915 439.15552856 290.06362915 438.13552856 C290.72362915 438.13552856 291.38362915 438.13552856 292.06362915 438.13552856 C292.39362915 436.48552856 292.72362915 434.83552856 293.06362915 433.13552856 C293.72362915 433.13552856 294.38362915 433.13552856 295.06362915 433.13552856 C295.39362915 431.48552856 295.72362915 429.83552856 296.06362915 428.13552856 C296.72362915 428.13552856 297.38362915 428.13552856 298.06362915 428.13552856 C298.06362915 427.14552856 298.06362915 426.15552856 298.06362915 425.13552856 C298.72362915 425.13552856 299.38362915 425.13552856 300.06362915 425.13552856 C300.39362915 423.48552856 300.72362915 421.83552856 301.06362915 420.13552856 C301.72362915 420.13552856 302.38362915 420.13552856 303.06362915 420.13552856 C303.06362915 418.48552856 303.06362915 416.83552856 303.06362915 415.13552856 C304.05362915 415.13552856 305.04362915 415.13552856 306.06362915 415.13552856 C306.06362915 413.48552856 306.06362915 411.83552856 306.06362915 410.13552856 C306.72362915 410.13552856 307.38362915 410.13552856 308.06362915 410.13552856 C308.39362915 408.48552856 308.72362915 406.83552856 309.06362915 405.13552856 C309.72362915 405.13552856 310.38362915 405.13552856 311.06362915 405.13552856 C311.06362915 404.14552856 311.06362915 403.15552856 311.06362915 402.13552856 C311.72362915 402.13552856 312.38362915 402.13552856 313.06362915 402.13552856 C313.39362915 400.15552856 313.72362915 398.17552856 314.06362915 396.13552856 C314.72362915 396.13552856 315.38362915 396.13552856 316.06362915 396.13552856 C316.39362915 394.48552856 316.72362915 392.83552856 317.06362915 391.13552856 C317.72362915 391.13552856 318.38362915 391.13552856 319.06362915 391.13552856 C319.33175415 390.00115356 319.59987915 388.86677856 319.87612915 387.69802856 C320.26800415 386.52240356 320.65987915 385.34677856 321.06362915 384.13552856 C322.05362915 383.80552856 323.04362915 383.47552856 324.06362915 383.13552856 C324.39362915 381.48552856 324.72362915 379.83552856 325.06362915 378.13552856 C325.72362915 378.13552856 326.38362915 378.13552856 327.06362915 378.13552856 C327.06362915 377.14552856 327.06362915 376.15552856 327.06362915 375.13552856 C327.72362915 375.13552856 328.38362915 375.13552856 329.06362915 375.13552856 C329.39362915 373.48552856 329.72362915 371.83552856 330.06362915 370.13552856 C330.72362915 370.13552856 331.38362915 370.13552856 332.06362915 370.13552856 C332.39362915 368.48552856 332.72362915 366.83552856 333.06362915 365.13552856 C333.72362915 365.13552856 334.38362915 365.13552856 335.06362915 365.13552856 C335.06362915 364.14552856 335.06362915 363.15552856 335.06362915 362.13552856 C335.72362915 362.13552856 336.38362915 362.13552856 337.06362915 362.13552856 C337.06362915 360.48552856 337.06362915 358.83552856 337.06362915 357.13552856 C338.05362915 357.13552856 339.04362915 357.13552856 340.06362915 357.13552856 C340.06362915 355.48552856 340.06362915 353.83552856 340.06362915 352.13552856 C340.72362915 352.13552856 341.38362915 352.13552856 342.06362915 352.13552856 C342.39362915 350.48552856 342.72362915 348.83552856 343.06362915 347.13552856 C343.72362915 347.13552856 344.38362915 347.13552856 345.06362915 347.13552856 C345.06362915 346.14552856 345.06362915 345.15552856 345.06362915 344.13552856 C346.05362915 344.13552856 347.04362915 344.13552856 348.06362915 344.13552856 C348.06362915 342.48552856 348.06362915 340.83552856 348.06362915 339.13552856 C348.72362915 339.13552856 349.38362915 339.13552856 350.06362915 339.13552856 C350.06362915 337.48552856 350.06362915 335.83552856 350.06362915 334.13552856 C350.72362915 333.80552856 351.38362915 333.47552856 352.06362915 333.13552856 C354.6327056 328.90898343 356.89457506 324.58208946 359.06362915 320.13552856 C359.72362915 320.13552856 360.38362915 320.13552856 361.06362915 320.13552856 C361.18737915 319.37240356 361.31112915 318.60927856 361.43862915 317.82302856 C362.06362915 315.13552856 362.06362915 315.13552856 364.06362915 312.13552856 C364.72362915 312.13552856 365.38362915 312.13552856 366.06362915 312.13552856 C366.39362915 310.48552856 366.72362915 308.83552856 367.06362915 307.13552856 C367.72362915 307.13552856 368.38362915 307.13552856 369.06362915 307.13552856 C369.18737915 306.37240356 369.31112915 305.60927856 369.43862915 304.82302856 C370.06362915 302.13552856 370.06362915 302.13552856 372.06362915 299.13552856 C372.72362915 299.13552856 373.38362915 299.13552856 374.06362915 299.13552856 C373.97081665 297.99084106 373.97081665 297.99084106 373.87612915 296.82302856 C374.06362915 294.13552856 374.06362915 294.13552856 375.43862915 292.32302856 C377.06362915 291.13552856 377.06362915 291.13552856 379.06362915 291.13552856 C379.39362915 289.48552856 379.72362915 287.83552856 380.06362915 286.13552856 C380.72362915 286.13552856 381.38362915 286.13552856 382.06362915 286.13552856 C382.06362915 284.48552856 382.06362915 282.83552856 382.06362915 281.13552856 C382.72362915 281.13552856 383.38362915 281.13552856 384.06362915 281.13552856 C384.39362915 279.48552856 384.72362915 277.83552856 385.06362915 276.13552856 C385.72362915 276.13552856 386.38362915 276.13552856 387.06362915 276.13552856 C387.39362915 274.48552856 387.72362915 272.83552856 388.06362915 271.13552856 C388.72362915 271.13552856 389.38362915 271.13552856 390.06362915 271.13552856 C390.20800415 270.55802856 390.35237915 269.98052856 390.50112915 269.38552856 C390.68675415 268.64302856 390.87237915 267.90052856 391.06362915 267.13552856 C391.20800415 266.41365356 391.35237915 265.69177856 391.50112915 264.94802856 C391.68675415 264.34990356 391.87237915 263.75177856 392.06362915 263.13552856 C392.72362915 262.80552856 393.38362915 262.47552856 394.06362915 262.13552856 C394.47092143 259.81396259 394.80801592 257.47864987 395.06362915 255.13552856 C395.72362915 255.13552856 396.38362915 255.13552856 397.06362915 255.13552856 C396.92336632 252.82268401 396.77627357 250.51025266 396.62612915 248.19802856 C396.54491821 246.91025513 396.46370728 245.62248169 396.3800354 244.29568481 C396.41443727 241.275289 396.41443727 241.275289 395.06362915 240.13552856 C395.02269978 237.80255423 395.02121192 235.46847632 395.06362915 233.13552856 C394.07362915 232.80552856 393.08362915 232.47552856 392.06362915 232.13552856 C392.06362915 230.81552856 392.06362915 229.49552856 392.06362915 228.13552856 C391.40362915 228.13552856 390.74362915 228.13552856 390.06362915 228.13552856 C390.06362915 227.14552856 390.06362915 226.15552856 390.06362915 225.13552856 C389.42425415 224.86740356 388.78487915 224.59927856 388.12612915 224.32302856 C386.06362915 223.13552856 386.06362915 223.13552856 385.06362915 220.13552856 C384.07362915 220.13552856 383.08362915 220.13552856 382.06362915 220.13552856 C382.06362915 219.47552856 382.06362915 218.81552856 382.06362915 218.13552856 C381.07362915 217.80552856 380.08362915 217.47552856 379.06362915 217.13552856 C379.06362915 216.47552856 379.06362915 215.81552856 379.06362915 215.13552856 C377.78487915 215.17677856 376.50612915 215.21802856 375.18862915 215.26052856 C373.00894165 215.33084106 373.00894165 215.33084106 371.06362915 215.13552856 C370.40362915 214.47552856 369.74362915 213.81552856 369.06362915 213.13552856 C366.26192484 212.82659251 366.26192484 212.82659251 362.9141674 212.87381554 C361.95339799 212.86782144 361.95339799 212.86782144 360.9732191 212.86170626 C358.80632906 212.85065369 356.63969107 212.85394414 354.47277832 212.85705566 C352.91187471 212.85205722 351.3509737 212.84618277 349.79007638 212.83950293 C345.48478704 212.82363414 341.17956284 212.82026849 336.87424779 212.81885433 C332.23754707 212.81517222 327.60088258 212.80002279 322.96420288 212.78623962 C314.92550915 212.76392542 306.88682824 212.74893721 298.8481102 212.73887253 C287.22536264 212.72431004 275.60265972 212.69878013 263.97993828 212.67054124 C245.12454626 212.62502894 226.26914782 212.58843253 207.41372681 212.55740356 C189.09340285 212.52723617 170.77309459 212.49289425 152.45278931 212.45291138 C151.32423043 212.45044983 150.19567154 212.44798828 149.03291391 212.44545214 C143.37147609 212.43307789 137.71003846 212.42062129 132.04860091 212.40812373 C85.0536322 212.30448952 38.058644 212.21530823 -8.93637085 212.13552856 C-8.93637085 211.47552856 -8.93637085 210.81552856 -8.93637085 210.13552856 C-11.24637085 210.13552856 -13.55637085 210.13552856 -15.93637085 210.13552856 C-16.26637085 209.14552856 -16.59637085 208.15552856 -16.93637085 207.13552856 C-17.69949585 207.19740356 -18.46262085 207.25927856 -19.24887085 207.32302856 C-21.93637085 207.13552856 -21.93637085 207.13552856 -23.74887085 205.76052856 C-24.93637085 204.13552856 -24.93637085 204.13552856 -24.93637085 202.13552856 C-25.92637085 202.13552856 -26.91637085 202.13552856 -27.93637085 202.13552856 C-27.93637085 201.14552856 -27.93637085 200.15552856 -27.93637085 199.13552856 C-28.59637085 199.13552856 -29.25637085 199.13552856 -29.93637085 199.13552856 C-31.56137085 197.94802856 -31.56137085 197.94802856 -32.93637085 196.13552856 C-33.12387085 193.44802856 -33.12387085 193.44802856 -32.93637085 191.13552856 C-33.92637085 190.80552856 -34.91637085 190.47552856 -35.93637085 190.13552856 C-35.93637085 187.82552856 -35.93637085 185.51552856 -35.93637085 183.13552856 C-36.59637085 183.13552856 -37.25637085 183.13552856 -37.93637085 183.13552856 C-37.98311203 163.4380955 -38.01837009 143.74067372 -38.03999519 124.04319668 C-38.05030342 114.89711591 -38.06435512 105.75106962 -38.08724976 96.60501099 C-38.10719748 88.63239282 -38.12009058 80.65979964 -38.12454784 72.68715721 C-38.12715287 68.46654643 -38.13326644 64.2460071 -38.14783096 60.02541924 C-38.1614367 56.05035354 -38.16558745 52.07538851 -38.16258621 48.10030174 C-38.16313504 46.6438721 -38.16709465 45.18743897 -38.1747818 43.73102951 C-38.18478936 41.73665066 -38.18113518 39.74221742 -38.17687988 37.74781799 C-38.17872347 36.63337028 -38.18056705 35.51892256 -38.18246651 34.3707037 C-37.90483501 30.72095816 -37.15215409 27.58498181 -35.93637085 24.13552856 C-35.27637085 23.80552856 -34.61637085 23.47552856 -33.93637085 23.13552856 C-33.78168335 21.92896606 -33.78168335 21.92896606 -33.62387085 20.69802856 C-33.39699585 19.85240356 -33.17012085 19.00677856 -32.93637085 18.13552856 C-30.37387085 16.82302856 -30.37387085 16.82302856 -27.93637085 16.13552856 C-27.93637085 15.14552856 -27.93637085 14.15552856 -27.93637085 13.13552856 C-26.56137085 11.44802856 -26.56137085 11.44802856 -24.93637085 10.13552856 C-24.27637085 10.13552856 -23.61637085 10.13552856 -22.93637085 10.13552856 C-22.93637085 9.47552856 -22.93637085 8.81552856 -22.93637085 8.13552856 C-21.94637085 8.13552856 -20.95637085 8.13552856 -19.93637085 8.13552856 C-19.60637085 7.14552856 -19.27637085 6.15552856 -18.93637085 5.13552856 C-17.61637085 5.13552856 -16.29637085 5.13552856 -14.93637085 5.13552856 C-14.93637085 4.47552856 -14.93637085 3.81552856 -14.93637085 3.13552856 C-13.97924194 2.93636841 -13.97924194 2.93636841 -13.0027771 2.73318481 C-12.17648804 2.55658325 -11.35019897 2.37998169 -10.49887085 2.19802856 C-9.26330444 1.93699341 -9.26330444 1.93699341 -8.0027771 1.67068481 C-1.57862048 0.00696183 -1.57862048 0.00696183 0 0 Z " fill="#01AA8C" transform="translate(65.93637084960938,313.8644714355469)"/>
<path d="M0 0 C0 0.66 0 1.32 0 2 C1.65 2 3.3 2 5 2 C5.33 2.99 5.66 3.98 6 5 C6.7425 4.9175 7.485 4.835 8.25 4.75 C11.82049467 5.07459042 12.60237746 6.44769213 15 9 C17.1381966 9.7872678 17.1381966 9.7872678 19 10 C19 10.99 19 11.98 19 13 C20.65 13 22.3 13 24 13 C24 13.66 24 14.32 24 15 C25.65 15.33 27.3 15.66 29 16 C29 16.66 29 17.32 29 18 C30.32 18.33 31.64 18.66 33 19 C33 19.66 33 20.32 33 21 C34.32 21 35.64 21 37 21 C37 21.66 37 22.32 37 23 C38.65 23 40.3 23 42 23 C42.33 23.99 42.66 24.98 43 26 C44.65 26 46.3 26 48 26 C48 26.66 48 27.32 48 28 C49.65 28.33 51.3 28.66 53 29 C53 29.66 53 30.32 53 31 C53.5775 31.12375 54.155 31.2475 54.75 31.375 C57.02335767 32.00648824 58.9253529 32.88858191 61 34 C61 34.66 61 35.32 61 36 C62.65 36.33 64.3 36.66 66 37 C66 37.66 66 38.32 66 39 C67.65 39.33 69.3 39.66 71 40 C71 40.66 71 41.32 71 42 C71.5775 42.144375 72.155 42.28875 72.75 42.4375 C74.83333333 42.95833333 76.91666667 43.47916667 79 44 C79 44.99 79 45.98 79 47 C79.72574219 46.94070312 80.45148438 46.88140625 81.19921875 46.8203125 C84.55067218 47.03532904 86.0729069 47.97591224 88.8125 49.875 C89.60269531 50.40867188 90.39289063 50.94234375 91.20703125 51.4921875 C91.79871094 51.98976562 92.39039063 52.48734375 93 53 C93 53.66 93 54.32 93 55 C94.65 55 96.3 55 98 55 C98 55.66 98 56.32 98 57 C99.65 57.33 101.3 57.66 103 58 C103 58.66 103 59.32 103 60 C104.65 60.33 106.3 60.66 108 61 C108 61.66 108 62.32 108 63 C109.65 63 111.3 63 113 63 C113 63.66 113 64.32 113 65 C113.99 65 114.98 65 116 65 C116.33 65.66 116.66 66.32 117 67 C119.02463255 67.65213292 119.02463255 67.65213292 121 68 C121 68.66 121 69.32 121 70 C121.94875 70.309375 122.8975 70.61875 123.875 70.9375 C127 72 127 72 129 73 C129 73.99 129 74.98 129 76 C129.99 76 130.98 76 132 76 C132 76.66 132 77.32 132 78 C132.99 78.33 133.98 78.66 135 79 C135 79.66 135 80.32 135 81 C135.66 81 136.32 81 137 81 C137 81.99 137 82.98 137 84 C137.99 84.33 138.98 84.66 140 85 C140 86.32 140 87.64 140 89 C140.66 89 141.32 89 142 89 C142 92.96 142 96.92 142 101 C142.66 101 143.32 101 144 101 C143.84660156 101.67417969 143.69320313 102.34835938 143.53515625 103.04296875 C142.91516143 106.46877952 142.6647426 109.83893447 142.4375 113.3125 C142.35371094 114.56675781 142.26992188 115.82101563 142.18359375 117.11328125 C142.12300781 118.06589844 142.06242187 119.01851563 142 120 C141.34 120 140.68 120 140 120 C140 121.65 140 123.3 140 125 C139.01 125 138.02 125 137 125 C136.87625 125.763125 136.7525 126.52625 136.625 127.3125 C136 130 136 130 134 133 C133.34 133 132.68 133 132 133 C132 134.65 132 136.3 132 138 C131.34 138.33 130.68 138.66 130 139 C129.2884375 140.7325 129.2884375 140.7325 128.5625 142.5 C128.046875 143.655 127.53125 144.81 127 146 C126.01 146.33 125.02 146.66 124 147 C123.67 148.65 123.34 150.3 123 152 C122.34 152 121.68 152 121 152 C120.814375 153.1446875 120.814375 153.1446875 120.625 154.3125 C120 157 120 157 118 160 C117.34 160 116.68 160 116 160 C115.87625 160.7425 115.7525 161.485 115.625 162.25 C115.04513299 164.80141485 114.26291261 166.7267573 113 169 C112.34 169 111.68 169 111 169 C110.67 170.32 110.34 171.64 110 173 C109.34 173 108.68 173 108 173 C108 174.65 108 176.3 108 178 C107.34 178 106.68 178 106 178 C105.67 179.65 105.34 181.3 105 183 C104.34 183 103.68 183 103 183 C103 183.99 103 184.98 103 186 C102.34 186.33 101.68 186.66 101 187 C100.34786708 189.02463255 100.34786708 189.02463255 100 191 C99.34 191 98.68 191 98 191 C98 192.65 98 194.3 98 196 C97.01 196 96.02 196 95 196 C95 197.65 95 199.3 95 201 C94.34 201 93.68 201 93 201 C92.67 201.99 92.34 202.98 92 204 C91.34 204 90.68 204 90 204 C90 205.65 90 207.3 90 209 C89.34 209.33 88.68 209.66 88 210 C87.34786708 212.02463255 87.34786708 212.02463255 87 214 C86.34 214 85.68 214 85 214 C85 214.99 85 215.98 85 217 C84.01 217 83.02 217 82 217 C82 218.65 82 220.3 82 222 C81.01 222.33 80.02 222.66 79 223 C78.8453125 224.11375 78.8453125 224.11375 78.6875 225.25 C77.94730389 228.21078443 76.84280403 229.61971146 75 232 C74.29485154 234.14733927 74.29485154 234.14733927 74 236 C73.34 236 72.68 236 72 236 C71.62875 236.99 71.62875 236.99 71.25 238 C69.68182955 241.76360907 67.85494954 245.3711424 66 249 C65.34 249 64.68 249 64 249 C63.67 250.65 63.34 252.3 63 254 C62.34 254 61.68 254 61 254 C61 255.65 61 257.3 61 259 C60.01 259 59.02 259 58 259 C57.855625 259.763125 57.71125 260.52625 57.5625 261.3125 C57 264 57 264 56 267 C55.01 267 54.02 267 53 267 C53 268.65 53 270.3 53 272 C52.34 272 51.68 272 51 272 C50.814375 272.86625 50.814375 272.86625 50.625 273.75 C49.99351176 276.02335767 49.11141809 277.9253529 48 280 C47.01 280 46.02 280 45 280 C45.04125 280.763125 45.0825 281.52625 45.125 282.3125 C45 285 45 285 43 288 C42.01 288 41.02 288 40 288 C40 289.65 40 291.3 40 293 C39.01 293.33 38.02 293.66 37 294 C36.87625 294.7425 36.7525 295.485 36.625 296.25 C36.04513299 298.80141485 35.26291261 300.7267573 34 303 C33.34 303 32.68 303 32 303 C31.814375 303.8353125 31.814375 303.8353125 31.625 304.6875 C30.94023145 307.22114364 30.00866237 309.57921032 29 312 C28.34 312 27.68 312 27 312 C26.67 313.65 26.34 315.3 26 317 C25.34 317 24.68 317 24 317 C23.814375 318.1446875 23.814375 318.1446875 23.625 319.3125 C23 322 23 322 21 325 C20.34 325 19.68 325 19 325 C19 326.65 19 328.3 19 330 C18.01 330 17.02 330 16 330 C16 331.65 16 333.3 16 335 C15.34 335 14.68 335 14 335 C14 335.99 14 336.98 14 338 C13.01 338 12.02 338 11 338 C11 339.65 11 341.3 11 343 C10.34 343 9.68 343 9 343 C8.814375 344.1446875 8.814375 344.1446875 8.625 345.3125 C8 348 8 348 6 351 C5.01 351 4.02 351 3 351 C3.1546875 351.99 3.1546875 351.99 3.3125 353 C2.86470894 357.29879417 0.85351557 360.76065697 -2 364 C-2.99 364 -3.98 364 -5 364 C-4.92910156 364.70898438 -4.85820313 365.41796875 -4.78515625 366.1484375 C-5.06046966 369.80259724 -6.37906602 371.61811254 -8.4375 374.625 C-11.14037 378.6013023 -11.14037 378.6013023 -13 383 C-13.66 383 -14.32 383 -15 383 C-15 384.65 -15 386.3 -15 388 C-15.99 388 -16.98 388 -18 388 C-18 389.65 -18 391.3 -18 393 C-18.66 393 -19.32 393 -20 393 C-20.33 394.65 -20.66 396.3 -21 398 C-21.66 398 -22.32 398 -23 398 C-23 398.99 -23 399.98 -23 401 C-23.99 401 -24.98 401 -26 401 C-26 402.65 -26 404.3 -26 406 C-26.66 406 -27.32 406 -28 406 C-28.33 407.65 -28.66 409.3 -29 411 C-29.66 411 -30.32 411 -31 411 C-31 411.99 -31 412.98 -31 414 C-31.66 414 -32.32 414 -33 414 C-33.33 415.65 -33.66 417.3 -34 419 C-34.66 419 -35.32 419 -36 419 C-36.185625 420.1446875 -36.185625 420.1446875 -36.375 421.3125 C-37 424 -37 424 -39 427 C-39.66 427 -40.32 427 -41 427 C-41.33 428.98 -41.66 430.96 -42 433 C-42.66 433 -43.32 433 -44 433 C-44 434.65 -44 436.3 -44 438 C-44.66 438.33 -45.32 438.66 -46 439 C-46.33 444.94 -46.66 450.88 -47 457 C-46.01 457 -45.02 457 -44 457 C-44 458.65 -44 460.3 -44 462 C-43.34 462 -42.68 462 -42 462 C-41.67 463.65 -41.34 465.3 -41 467 C-40.34 467 -39.68 467 -39 467 C-39 467.99 -39 468.98 -39 470 C-38.01 470 -37.02 470 -36 470 C-36 470.66 -36 471.32 -36 472 C-35.34 472 -34.68 472 -34 472 C-34 472.99 -34 473.98 -34 475 C-33.01 475 -32.02 475 -31 475 C-31 475.66 -31 476.32 -31 477 C-29.35 477.33 -27.7 477.66 -26 478 C-26 478.66 -26 479.32 -26 480 C-24.576875 479.9690625 -24.576875 479.9690625 -23.125 479.9375 C-20 480 -20 480 -18 481 C-18 481.66 -18 482.32 -18 483 C106.74 483 231.48 483 360 483 C360 483.66 360 484.32 360 485 C362.31 485 364.62 485 367 485 C367.33 485.99 367.66 486.98 368 488 C369.65 488 371.3 488 373 488 C373 488.99 373 489.98 373 491 C373.99 491 374.98 491 376 491 C376 491.66 376 492.32 376 493 C376.99 493 377.98 493 379 493 C379 493.99 379 494.98 379 496 C379.66 496 380.32 496 381 496 C381 496.99 381 497.98 381 499 C381.66 499 382.32 499 383 499 C383.33 500.65 383.66 502.3 384 504 C384.66 504 385.32 504 386 504 C387.20272819 506.40545638 387.10071472 507.94996953 387.0625 510.625 C387.05347656 511.44226563 387.04445313 512.25953125 387.03515625 513.1015625 C387.01775391 514.04128906 387.01775391 514.04128906 387 515 C387.66 515 388.32 515 389 515 C389.02332783 533.88837881 389.0409786 552.77675471 389.05181217 571.66514492 C389.05697538 580.43472715 389.06401854 589.20430045 389.07543945 597.97387695 C389.08538554 605.61462903 389.09185325 613.25537464 389.09408849 620.89613301 C389.09539573 624.94438385 389.09848238 628.99261619 389.10573006 633.04086113 C389.11248909 636.84680869 389.1146172 640.65273002 389.11310768 644.45868301 C389.11338406 645.85957672 389.11538988 647.26047125 389.11920547 648.66135979 C389.12414083 650.56589508 389.122398 652.47044426 389.12025452 654.37498474 C389.12117631 655.44334281 389.1220981 656.51170088 389.12304783 657.61243343 C389 660 389 660 388 661 C387.95875 662.299375 387.9175 663.59875 387.875 664.9375 C387.29563629 671.17065444 383.71192646 675.1872326 380 680 C379.67 680.66 379.34 681.32 379 682 C378.01 682 377.02 682 376 682 C376 682.99 376 683.98 376 685 C375.01 685 374.02 685 373 685 C373 685.66 373 686.32 373 687 C371.35 687 369.7 687 368 687 C368 687.99 368 688.98 368 690 C366.35 690 364.7 690 363 690 C362.67 690.99 362.34 691.98 362 693 C347.97037733 693.04670107 333.94076669 693.08184663 319.91108227 693.10362434 C313.39699297 693.11407495 306.88295579 693.12825746 300.36889648 693.15087891 C294.08602191 693.17256172 287.80319756 693.184559 281.52028847 693.18975449 C279.11963421 693.19345845 276.7189828 693.20069106 274.31834984 693.21146011 C270.96371836 693.22591431 267.60929612 693.22798048 264.25463867 693.22705078 C263.25554474 693.23424133 262.25645081 693.24143188 261.2270813 693.24884033 C260.31422867 693.246091 259.40137604 693.24334167 258.46086121 693.24050903 C257.66719745 693.24235262 256.87353369 693.24419621 256.05581951 693.24609566 C254 693 254 693 251 691 C248.24582682 690.69933846 245.57354853 690.49074701 242.8125 690.375 C242.06291016 690.33632813 241.31332031 690.29765625 240.54101562 690.2578125 C238.69440801 690.16371784 236.8472381 690.08077681 235 690 C235 689.01 235 688.02 235 687 C233.71222656 687.01160156 232.42445313 687.02320313 231.09765625 687.03515625 C229.41927228 687.0445327 227.74088674 687.05363305 226.0625 687.0625 C225.21236328 687.07087891 224.36222656 687.07925781 223.48632812 687.08789062 C222.67744141 687.09111328 221.86855469 687.09433594 221.03515625 687.09765625 C220.2862915 687.10289307 219.53742676 687.10812988 218.76586914 687.11352539 C217 687 217 687 216 686 C213.98405418 685.76572222 211.961526 685.58663876 209.9375 685.4375 C208.83277344 685.35371094 207.72804688 685.26992188 206.58984375 685.18359375 C205.73519531 685.12300781 204.88054687 685.06242188 204 685 C203.67 684.01 203.34 683.02 203 682 C202.36191406 682.01160156 201.72382812 682.02320313 201.06640625 682.03515625 C199.82697266 682.04869141 199.82697266 682.04869141 198.5625 682.0625 C197.73878906 682.07410156 196.91507813 682.08570313 196.06640625 682.09765625 C194 682 194 682 193 681 C191.15400312 680.60545777 189.29774178 680.25823134 187.4375 679.9375 C186.42558594 679.76089844 185.41367187 679.58429687 184.37109375 679.40234375 C183.58863281 679.26957031 182.80617188 679.13679687 182 679 C182 678.34 182 677.68 182 677 C179.36 677 176.72 677 174 677 C174 676.01 174 675.02 174 674 C170.7 674 167.4 674 164 674 C164 673.34 164 672.68 164 672 C161.69 672 159.38 672 157 672 C156.67 671.01 156.34 670.02 156 669 C153.36 669 150.72 669 148 669 C148 668.01 148 667.02 148 666 C145.36 666 142.72 666 140 666 C140 665.34 140 664.68 140 664 C139.05125 664.04125 138.1025 664.0825 137.125 664.125 C134 664 134 664 132 662 C129.42938689 661.35232207 129.42938689 661.35232207 127 661 C127 660.34 127 659.68 127 659 C125.35 658.67 123.7 658.34 122 658 C122 657.34 122 656.68 122 656 C120.02 656 118.04 656 116 656 C115.67 655.34 115.34 654.68 115 654 C112.97536745 653.34786708 112.97536745 653.34786708 111 653 C111 652.34 111 651.68 111 651 C109.35 651 107.7 651 106 651 C105.67 650.34 105.34 649.68 105 649 C103.01363702 648.29373761 101.01151741 647.63106429 99 647 C97.65278717 646.36184656 96.31252882 645.70674629 95 645 C95 644.34 95 643.68 95 643 C93.35 643 91.7 643 90 643 C90 642.01 90 641.02 90 640 C88.35 640 86.7 640 85 640 C85 639.34 85 638.68 85 638 C83.35 637.67 81.7 637.34 80 637 C80 636.34 80 635.68 80 635 C78.35 634.67 76.7 634.34 75 634 C75 633.34 75 632.68 75 632 C74.01 632 73.02 632 72 632 C72 631.34 72 630.68 72 630 C71.278125 629.87625 70.55625 629.7525 69.8125 629.625 C65.45367244 628.65637165 61.84728878 627.5965753 59 624 C59 623.34 59 622.68 59 622 C57.35 621.67 55.7 621.34 54 621 C54 620.34 54 619.68 54 619 C53.01 619 52.02 619 51 619 C51 618.34 51 617.68 51 617 C49.35 616.67 47.7 616.34 46 616 C46 615.34 46 614.68 46 614 C45.01 614 44.02 614 43 614 C43 613.01 43 612.02 43 611 C42.01 611 41.02 611 40 611 C40 610.34 40 609.68 40 609 C39.34 609 38.68 609 38 609 C37.67 608.34 37.34 607.68 37 607 C35.35636866 606.27840576 33.68949614 605.60648579 32 605 C32 604.34 32 603.68 32 603 C31.34 603 30.68 603 30 603 C30 602.34 30 601.68 30 601 C29.01 601 28.02 601 27 601 C27 600.01 27 599.02 27 598 C26.01 598 25.02 598 24 598 C24 597.34 24 596.68 24 596 C22.35 595.67 20.7 595.34 19 595 C19 594.34 19 593.68 19 593 C18.34 593 17.68 593 17 593 C17 592.01 17 591.02 17 590 C16.01 590 15.02 590 14 590 C14 589.34 14 588.68 14 588 C13.01 587.67 12.02 587.34 11 587 C11 586.34 11 585.68 11 585 C9.68 585 8.36 585 7 585 C5.25 583.625 5.25 583.625 4 582 C4 581.34 4 580.68 4 580 C3.01 579.67 2.02 579.34 1 579 C1 578.34 1 577.68 1 577 C0.01 576.67 -0.98 576.34 -2 576 C-2 575.34 -2 574.68 -2 574 C-2.66 574 -3.32 574 -4 574 C-4 573.34 -4 572.68 -4 572 C-4.99 571.67 -5.98 571.34 -7 571 C-7 570.34 -7 569.68 -7 569 C-7.99 568.67 -8.98 568.34 -10 568 C-10 567.34 -10 566.68 -10 566 C-10.66 566 -11.32 566 -12 566 C-12 564.35 -12 562.7 -12 561 C-12.99 561 -13.98 561 -15 561 C-15 560.34 -15 559.68 -15 559 C-15.99 559 -16.98 559 -18 559 C-18.268125 558.195625 -18.53625 557.39125 -18.8125 556.5625 C-19.204375 555.716875 -19.59625 554.87125 -20 554 C-20.99 553.67 -21.98 553.34 -23 553 C-23 552.34 -23 551.68 -23 551 C-23.99 550.67 -24.98 550.34 -26 550 C-26 549.34 -26 548.68 -26 548 C-26.66 548 -27.32 548 -28 548 C-28 547.34 -28 546.68 -28 546 C-28.99 545.67 -29.98 545.34 -31 545 C-31 544.34 -31 543.68 -31 543 C-31.66 543 -32.32 543 -33 543 C-33 542.01 -33 541.02 -33 540 C-33.99 540 -34.98 540 -36 540 C-36 539.01 -36 538.02 -36 537 C-36.66 537 -37.32 537 -38 537 C-41 532.61538462 -41 532.61538462 -41 530 C-41.99 529.67 -42.98 529.34 -44 529 C-44 528.34 -44 527.68 -44 527 C-44.66 527 -45.32 527 -46 527 C-46.33 525.35 -46.66 523.7 -47 522 C-47.66 522 -48.32 522 -49 522 C-49 521.01 -49 520.02 -49 519 C-49.99 518.67 -50.98 518.34 -52 518 C-52 516.68 -52 515.36 -52 514 C-52.66 514 -53.32 514 -54 514 C-55.5078125 512.3203125 -55.5078125 512.3203125 -57.125 510.125 C-57.66382813 509.40570312 -58.20265625 508.68640625 -58.7578125 507.9453125 C-60 506 -60 506 -60 504 C-60.66 504 -61.32 504 -62 504 C-62 503.01 -62 502.02 -62 501 C-62.99 500.67 -63.98 500.34 -65 500 C-65 498.68 -65 497.36 -65 496 C-65.66 496 -66.32 496 -67 496 C-68.625 494.8125 -68.625 494.8125 -70 493 C-70.1875 490.3125 -70.1875 490.3125 -70 488 C-70.99 487.67 -71.98 487.34 -73 487 C-73 485.68 -73 484.36 -73 483 C-73.66 483 -74.32 483 -75 483 C-75 482.01 -75 481.02 -75 480 C-75.99 479.67 -76.98 479.34 -78 479 C-78 477.68 -78 476.36 -78 475 C-78.66 475 -79.32 475 -80 475 C-80.33 473.02 -80.66 471.04 -81 469 C-81.66 469 -82.32 469 -83 469 C-85.5393228 465.58168085 -86.3636198 463.24223102 -86 459 C-86.66 459 -87.32 459 -88 459 C-90.15305957 455.14243493 -91.39253254 452.44870215 -91 448 C-91.99 447.67 -92.98 447.34 -94 447 C-94.87890625 444.78515625 -94.87890625 444.78515625 -95.5625 442.0625 C-96.50780455 438.11218472 -96.50780455 438.11218472 -99 435 C-99.125 432.375 -99.125 432.375 -99 430 C-99.99 429.67 -100.98 429.34 -102 429 C-103.80266269 425.58442859 -104.218934 422.83134499 -104 419 C-104.66 419 -105.32 419 -106 419 C-107.35439668 416.29120665 -107.06501451 413.99066732 -107 411 C-107.66 411 -108.32 411 -109 411 C-110.905247 405.89665983 -112.42589023 401.53657294 -112 396 C-112.99 395.67 -113.98 395.34 -115 395 C-115 392.69 -115 390.38 -115 388 C-115.66 388 -116.32 388 -117 388 C-117 384.37 -117 380.74 -117 377 C-117.99 376.67 -118.98 376.34 -120 376 C-120 373.03 -120 370.06 -120 367 C-120.66 367 -121.32 367 -122 367 C-123.38226016 364.23547967 -123.09525387 361.9538637 -123.0625 358.875 C-123.05347656 357.77929688 -123.04445313 356.68359375 -123.03515625 355.5546875 C-123.02355469 354.71164062 -123.01195312 353.86859375 -123 353 C-123.66 353 -124.32 353 -125 353 C-125 348.38 -125 343.76 -125 339 C-125.66 339 -126.32 339 -127 339 C-128.20029908 336.59940183 -128.11459743 335.10639351 -128.09765625 332.4296875 C-128.09282227 331.08583984 -128.09282227 331.08583984 -128.08789062 329.71484375 C-128.07951172 328.77769531 -128.07113281 327.84054687 -128.0625 326.875 C-128.05798828 325.93011719 -128.05347656 324.98523438 -128.04882812 324.01171875 C-128.03702357 321.67441613 -128.02055759 319.33723939 -128 317 C-128.66 317 -129.32 317 -130 317 C-130.90912969 312.36089487 -131.14286951 307.87322244 -131.12939453 303.16210938 C-131.13114685 302.4003389 -131.13289917 301.63856842 -131.13470459 300.85371399 C-131.13908468 298.35036908 -131.13619869 295.84709555 -131.1328125 293.34375 C-131.13348664 291.59549954 -131.13445759 289.84724917 -131.13571167 288.09899902 C-131.13718344 284.44082748 -131.13505083 280.78268041 -131.13037109 277.12451172 C-131.12467413 272.44394737 -131.12795592 267.76344036 -131.13394356 263.08287811 C-131.13756323 259.47458466 -131.13640411 255.86630473 -131.13381577 252.25801086 C-131.13315039 250.53249606 -131.13396128 248.80698002 -131.13629532 247.08146667 C-131.13884492 244.66690842 -131.13494878 242.25244206 -131.12939453 239.83789062 C-131.13141876 239.13018021 -131.13344299 238.42246979 -131.13552856 237.6933136 C-131.11854895 233.69324902 -130.76923191 229.92523502 -130 226 C-129.34 226 -128.68 226 -128 226 C-128 219.4 -128 212.8 -128 206 C-127.01 205.67 -126.02 205.34 -125 205 C-125.01160156 204.07316406 -125.02320313 203.14632812 -125.03515625 202.19140625 C-125.04417969 200.99386719 -125.05320312 199.79632813 -125.0625 198.5625 C-125.07990234 196.77005859 -125.07990234 196.77005859 -125.09765625 194.94140625 C-125 192 -125 192 -124 191 C-123.71450351 187.96376745 -123.55131186 184.92742215 -123.37890625 181.8828125 C-123 179 -123 179 -121 176 C-120.54860541 173.9507906 -120.54860541 173.9507906 -120.375 171.8125 C-120.25125 170.554375 -120.1275 169.29625 -120 168 C-119.01 168 -118.02 168 -117 168 C-117.01160156 167.28972656 -117.02320313 166.57945312 -117.03515625 165.84765625 C-117.04869141 164.46900391 -117.04869141 164.46900391 -117.0625 163.0625 C-117.07410156 162.14597656 -117.08570313 161.22945312 -117.09765625 160.28515625 C-117 158 -117 158 -116 157 C-115.63239269 154.67182036 -115.29758419 152.3381615 -115 150 C-114.01 149.67 -113.02 149.34 -112 149 C-112 146.69 -112 144.38 -112 142 C-111.34 142 -110.68 142 -110 142 C-109.67 139.36 -109.34 136.72 -109 134 C-108.34 134 -107.68 134 -107 134 C-107 131.69 -107 129.38 -107 127 C-105.515 126.505 -105.515 126.505 -104 126 C-104 124.35 -104 122.7 -104 121 C-103.34 121 -102.68 121 -102 121 C-102.020625 120.05125 -102.04125 119.1025 -102.0625 118.125 C-102 115 -102 115 -101 113 C-100.34 113 -99.68 113 -99 113 C-99 111.35 -99 109.7 -99 108 C-98.01 107.67 -97.02 107.34 -96 107 C-96 105.35 -96 103.7 -96 102 C-95.34 102 -94.68 102 -94 102 C-93.67 100.35 -93.34 98.7 -93 97 C-92.34 97 -91.68 97 -91 97 C-91 95.35 -91 93.7 -91 92 C-90.34 92 -89.68 92 -89 92 C-88.67 90.02 -88.34 88.04 -88 86 C-87.34 86 -86.68 86 -86 86 C-86 84.35 -86 82.7 -86 81 C-85.01 81 -84.02 81 -83 81 C-83 79.35 -83 77.7 -83 76 C-82.34 76 -81.68 76 -81 76 C-80.67 74.35 -80.34 72.7 -80 71 C-79.34 71 -78.68 71 -78 71 C-78 69.35 -78 67.7 -78 66 C-77.01 65.67 -76.02 65.34 -75 65 C-74.38932856 63.14255793 -74.38932856 63.14255793 -74 61 C-73.36345658 59.6520257 -72.70394612 58.31403276 -72 57 C-71.34 57 -70.68 57 -70 57 C-69.814375 55.8553125 -69.814375 55.8553125 -69.625 54.6875 C-69 52 -69 52 -67 49 C-66.34 49 -65.68 49 -65 49 C-65 47.35 -65 45.7 -65 44 C-64.01 44 -63.02 44 -62 44 C-62 42.35 -62 40.7 -62 39 C-61.34 39 -60.68 39 -60 39 C-58.58622659 36.36095629 -57.62759865 33.92879371 -57 31 C-56.01 31 -55.02 31 -54 31 C-54 29.35 -54 27.7 -54 26 C-53.34 26 -52.68 26 -52 26 C-52 25.01 -52 24.02 -52 23 C-51.01 22.505 -51.01 22.505 -50 22 C-49.34786708 19.97536745 -49.34786708 19.97536745 -49 18 C-48.34 18 -47.68 18 -47 18 C-46.67 16.35 -46.34 14.7 -46 13 C-45.34 13 -44.68 13 -44 13 C-44 12.01 -44 11.02 -44 10 C-43.01 10 -42.02 10 -41 10 C-41 9.34 -41 8.68 -41 8 C-39.8125 6.375 -39.8125 6.375 -38 5 C-35.3125 4.8125 -35.3125 4.8125 -33 5 C-33 4.01 -33 3.02 -33 2 C-31.35 2 -29.7 2 -28 2 C-28 1.34 -28 0.68 -28 0 C-18.52388303 -1.16656743 -9.47041213 -0.78118882 0 0 Z " fill="#01AA8C" transform="translate(615,7)"/>
</svg>
