<?xml version="1.0" encoding="utf-8"?>
<!-- Generator: Adobe Illustrator 28.1.0, SVG Export Plug-In . SVG Version: 6.00 Build 0)  -->
<svg version="1.1" xmlns="http://www.w3.org/2000/svg" xmlns:xlink="http://www.w3.org/1999/xlink" x="0px" y="0px"
	 viewBox="0 0 1024 1024" style="enable-background:new 0 0 1024 1024;" xml:space="preserve">
<style type="text/css">
	.st0{fill:#22C55E;}
</style>
<g id="Baixo">
	<path class="st0" d="M243.61,522.78c-59.94,0-119.87-0.12-179.81,0.09c-12.72,0.05-21.52-6.22-27.84-16.08
		c-2.7-4.21-4.04-10.01-4.08-15.09c-0.31-44.33-0.58-88.66,0.07-132.98c0.19-12.92,6.01-24.24,19.07-29.53
		c3.53-1.43,7.8-1.09,11.75-1.43c7.59-0.65,15.19-1.39,22.79-1.7c3.79-0.16,7.61,0.81,11.42,0.79c6.14-0.04,12.28-0.68,18.42-0.67
		c4.27,0.01,8.54,0.72,12.81,1.05c3.8,0.29,7.62,0.79,11.41,0.67c15.64-0.51,30.96,1.8,46.26,4.72c7.57,1.44,15.26,2.23,22.86,3.52
		c4.08,0.69,8.15,1.58,12.1,2.8c16.39,5.08,33.07,9.46,49,15.73c17.99,7.08,35.73,15.1,52.78,24.21
		c14.11,7.55,27.12,17.17,40.49,26.07c20.7,13.79,38.77,30.71,56.27,48.23c16.96,16.98,31.73,35.78,45.54,55.42
		c12.18,17.32,22.93,35.43,31.5,54.72c8.12,18.28,15.51,36.92,22.59,55.64c2.89,7.63,4.08,15.9,6.13,23.86
		c1.64,6.36,3.51,12.66,5.06,19.03c0.98,4.01,1.73,8.09,2.29,12.17c1.22,8.97,2.73,17.95,3.27,26.97c1.03,17.23,1.89,34.5,2,51.75
		c0.07,11.07-0.94,22.19-2.15,33.21c-1.17,10.61-2.53,21.29-5.04,31.64c-4.4,18.12-9.32,36.15-14.84,53.96
		c-3.41,11.02-7.54,21.97-12.73,32.25c-9.93,19.69-20.74,38.95-31.4,58.26c-4.81,8.72-10.23,17.09-15.19,25.73
		c-4.06,7.08-8.92,13.42-16.78,16.3c-8.14,2.98-16.83,3.56-24.63-0.41c-12.26-6.24-23.99-13.5-36.01-20.21
		c-18.42-10.27-36.93-20.37-55.32-30.69c-10.98-6.16-22.12-12.11-32.59-19.06c-13.17-8.73-17.29-26.4-9.16-40.65
		c11.17-19.6,22.59-39.05,33.98-58.53c12.16-20.8,24.42-41.54,36.62-62.32c12.03-20.49,24-41.02,36.08-61.48
		c14.43-24.46,28.99-48.86,43.41-73.33c5.82-9.88,11.35-19.93,17.16-29.81c3.52-5.99,7.27-11.84,11-17.7
		c13.76-21.57,8.05-48.27-14.46-61.13c-7.13-4.07-15.34-6.25-24.28-6.19c-59.27,0.38-118.54,0.19-177.81,0.19
		C243.61,522.79,243.61,522.79,243.61,522.78z"/>
</g>
<g id="Cima">
	<path class="st0" d="M782.15,501.03c59.77,0,119.55,0.2,179.32-0.15c14.45-0.08,26.12,10.84,30.52,22.72
		c0.55,1.5,0.42,3.3,0.42,4.95c0.02,46.5,0.07,93-0.03,139.5c-0.03,13.51-14.34,27.77-27.76,27.8c-30.47,0.06-60.95,0.37-91.4-0.27
		c-11.14-0.24-22.24-2.84-33.35-4.43c-7.32-1.05-14.66-2.05-21.92-3.42c-5.17-0.97-10.24-2.45-15.33-3.82
		c-7.15-1.93-14.29-3.88-21.39-5.97c-6.34-1.87-12.76-3.6-18.89-6.02c-11.98-4.72-24.01-9.43-35.62-14.98
		c-12.11-5.78-24.12-11.96-35.5-19.03c-15.63-9.71-30.73-20.3-45.86-30.8c-4.33-3.01-8.06-6.92-11.94-10.55
		c-12.61-11.78-25.54-23.26-37.6-35.59c-7.39-7.55-13.77-16.17-19.99-24.76c-10.61-14.64-21.31-29.26-30.88-44.58
		c-8.25-13.2-15.96-26.92-22.1-41.2c-7.37-17.12-13.16-34.96-18.99-52.69c-3.29-10-5.54-20.36-7.8-30.67
		c-2.78-12.72-5.07-25.54-7.57-38.32c-0.06-0.33-0.09-0.66-0.11-0.99c-0.72-20.27-2.73-40.61-1.77-60.8
		c0.83-17.27,2.58-34.62,5.83-51.84c2.6-13.81,5.8-27.45,9.08-41.05c2.46-10.23,6.24-20.19,10.02-30.05
		c4.32-11.29,8.67-22.64,14.11-33.41c8.07-15.98,17.04-31.5,25.76-47.15c5.25-9.43,10.61-18.81,16.18-28.05
		c4.64-7.7,10.65-14.99,19.49-16.78c9.43-1.92,19.3-1.86,28.46,3.6c18.38,10.96,37.07,21.4,55.68,31.97
		c18.9,10.74,37.86,21.37,56.78,32.09c6.86,3.89,13.36,8.45,16.45,15.95c1.59,3.85,1.87,8.39,2.06,12.65
		c0.37,8.25-3.06,15.49-7.1,22.4c-7.55,12.91-15.2,25.76-22.88,38.6c-5.37,8.99-10.92,17.88-16.25,26.9
		c-7.1,12-14.03,24.11-21.11,36.13c-12.81,21.76-25.69,43.47-38.49,65.24c-13.55,23.03-26.97,46.14-40.56,69.15
		c-9.51,16.11-19.35,32.03-28.75,48.21c-4.42,7.6-8.49,15.44-12.09,23.46c-4.27,9.5-2.72,18.99,0.84,28.55
		c5.32,14.27,15.81,22.15,30.04,25.59c4.77,1.15,9.78,1.83,14.68,1.84C663.94,501.07,723.04,501.03,782.15,501.03z"/>
</g>
</svg>
